<svg xmlns="http://www.w3.org/2000/svg" xmlns:xlink="http://www.w3.org/1999/xlink" width="1600" zoomAndPan="magnify" viewBox="0 0 1200 449.999984" height="600" preserveAspectRatio="xMidYMid meet" version="1.2"><defs><clipPath id="89d3302ab7"><path d="M 317.277344 183.867188 L 396.777344 183.867188 L 396.777344 266 L 317.277344 266 Z M 317.277344 183.867188 "/></clipPath><clipPath id="7db22482f5"><path d="M 458.238281 221.636719 L 471 221.636719 L 471 234.386719 L 458.238281 234.386719 Z M 458.238281 221.636719 "/></clipPath><clipPath id="dd7beeed4c"><path d="M 473 221.636719 L 487 221.636719 L 487 234.386719 L 473 234.386719 Z M 473 221.636719 "/></clipPath><clipPath id="7931ea8ecf"><path d="M 489 221.636719 L 501.738281 221.636719 L 501.738281 234.386719 L 489 234.386719 Z M 489 221.636719 "/></clipPath><clipPath id="0bc56f32d5"><path d="M 909.699219 183.867188 L 938.125 183.867188 L 938.125 212.296875 L 909.699219 212.296875 Z M 909.699219 183.867188 "/></clipPath></defs><g id="ec6f283856"><g clip-rule="nonzero" clip-path="url(#89d3302ab7)"><path style=" stroke:none;fill-rule:nonzero;fill:#0097b2;fill-opacity:1;" d="M 337.460938 210.550781 L 317.765625 263.289062 C 317.285156 264.570312 318.234375 265.941406 319.605469 265.941406 L 336.359375 265.941406 C 337.191406 265.941406 337.933594 265.414062 338.210938 264.628906 L 342.890625 251.386719 L 348.550781 234.425781 C 348.683594 234.027344 348.683594 233.59375 348.554688 233.195312 L 341.167969 210.625 C 340.589844 208.859375 338.109375 208.808594 337.460938 210.550781 Z M 365.273438 183.867188 L 350.328125 183.867188 C 348.976562 183.867188 348.027344 185.199219 348.472656 186.472656 L 356.863281 210.671875 L 356.875 210.640625 L 370.648438 251.386719 L 375.421875 264.640625 C 375.703125 265.421875 376.445312 265.941406 377.273438 265.941406 L 394.441406 265.941406 C 395.8125 265.941406 396.761719 264.570312 396.285156 263.289062 L 367.117188 185.144531 C 366.828125 184.375 366.09375 183.867188 365.273438 183.867188 "/></g><g clip-rule="nonzero" clip-path="url(#7db22482f5)"><path style=" stroke:none;fill-rule:nonzero;fill:#737373;fill-opacity:1;" d="M 464.589844 234.292969 C 468.078125 234.292969 470.917969 231.453125 470.917969 227.960938 C 470.917969 224.472656 468.078125 221.632812 464.589844 221.632812 C 461.097656 221.632812 458.257812 224.472656 458.257812 227.960938 C 458.257812 231.453125 461.097656 234.292969 464.589844 234.292969 "/></g><g clip-rule="nonzero" clip-path="url(#dd7beeed4c)"><path style=" stroke:none;fill-rule:nonzero;fill:#737373;fill-opacity:1;" d="M 479.988281 234.292969 C 483.476562 234.292969 486.316406 231.453125 486.316406 227.960938 C 486.316406 224.472656 483.476562 221.632812 479.988281 221.632812 C 476.496094 221.632812 473.65625 224.472656 473.65625 227.960938 C 473.65625 231.453125 476.496094 234.292969 479.988281 234.292969 "/></g><g clip-rule="nonzero" clip-path="url(#7931ea8ecf)"><path style=" stroke:none;fill-rule:nonzero;fill:#737373;fill-opacity:1;" d="M 495.386719 234.292969 C 498.878906 234.292969 501.71875 231.453125 501.71875 227.960938 C 501.71875 224.472656 498.878906 221.632812 495.386719 221.632812 C 491.894531 221.632812 489.054688 224.472656 489.054688 227.960938 C 489.054688 231.453125 491.894531 234.292969 495.386719 234.292969 "/></g><path style=" stroke:none;fill-rule:nonzero;fill:#737373;fill-opacity:1;" d="M 919.3125 201.636719 L 919.3125 195.730469 L 917.203125 195.730469 L 917.203125 194.527344 L 922.851562 194.527344 L 922.851562 195.730469 L 920.746094 195.730469 L 920.746094 201.636719 L 919.3125 201.636719 "/><path style=" stroke:none;fill-rule:nonzero;fill:#737373;fill-opacity:1;" d="M 923.757812 201.636719 L 923.757812 194.527344 L 925.90625 194.527344 L 927.195312 199.375 L 928.46875 194.527344 L 930.621094 194.527344 L 930.621094 201.636719 L 929.289062 201.636719 L 929.289062 196.039062 L 927.878906 201.636719 L 926.496094 201.636719 L 925.089844 196.039062 L 925.089844 201.636719 L 923.757812 201.636719 "/><g clip-rule="nonzero" clip-path="url(#0bc56f32d5)"><path style=" stroke:none;fill-rule:nonzero;fill:#a6a6a6;fill-opacity:1;" d="M 923.910156 209.808594 C 917.4375 209.808594 912.1875 204.558594 912.1875 198.082031 C 912.1875 191.605469 917.4375 186.355469 923.910156 186.355469 C 930.386719 186.355469 935.636719 191.605469 935.636719 198.082031 C 935.636719 204.558594 930.386719 209.808594 923.910156 209.808594 Z M 923.910156 183.867188 C 916.0625 183.867188 909.699219 190.230469 909.699219 198.082031 C 909.699219 205.933594 916.0625 212.296875 923.910156 212.296875 C 931.761719 212.296875 938.125 205.933594 938.125 198.082031 C 938.125 190.230469 931.761719 183.867188 923.910156 183.867188 "/></g><g style="fill:#0097b2;fill-opacity:1;"><g transform="translate(412.047733, 265.298943)"><path style="stroke:none" d="M 5.25 0 L 5.25 -16.328125 L 19.359375 -16.328125 L 19.359375 -65.296875 L 5.25 -65.296875 L 5.25 -81.609375 L 52.9375 -81.609375 L 52.9375 -65.296875 L 38.828125 -65.296875 L 38.828125 -16.328125 L 52.9375 -16.328125 L 52.9375 0 Z M 5.25 0 "/></g></g><g style="fill:#0097b2;fill-opacity:1;"><g transform="translate(470.226092, 265.298943)"><path style="stroke:none" d=""/></g></g><g style="fill:#ff914d;fill-opacity:1;"><g transform="translate(501.133667, 265.298943)"><path style="stroke:none" d="M 6.765625 0 L 6.765625 -85.109375 L 24.828125 -85.109375 L 24.828125 -55.84375 C 27.160156 -57.707031 29.726562 -59.066406 32.53125 -59.921875 C 35.332031 -60.785156 38.128906 -61.21875 40.921875 -61.21875 C 46.367188 -61.21875 50.972656 -60.050781 54.734375 -57.71875 C 58.503906 -55.382812 61.34375 -52.195312 63.25 -48.15625 C 65.15625 -44.113281 66.109375 -39.523438 66.109375 -34.390625 L 66.109375 0 L 48.03125 0 L 48.03125 -33.703125 C 48.03125 -35.953125 47.503906 -37.953125 46.453125 -39.703125 C 45.410156 -41.453125 44.015625 -42.847656 42.265625 -43.890625 C 40.515625 -44.941406 38.59375 -45.46875 36.5 -45.46875 C 34.394531 -45.46875 32.445312 -44.960938 30.65625 -43.953125 C 28.875 -42.941406 27.457031 -41.582031 26.40625 -39.875 C 25.351562 -38.164062 24.828125 -36.222656 24.828125 -34.046875 L 24.828125 0 Z M 6.765625 0 "/></g></g><g style="fill:#ff914d;fill-opacity:1;"><g transform="translate(574.002348, 265.298943)"><path style="stroke:none" d="M -9.671875 23.671875 L -9.671875 8.15625 L 3.03125 8.15625 C 4.195312 8.15625 5.148438 7.785156 5.890625 7.046875 C 6.628906 6.316406 7 5.40625 7 4.3125 L 7 -59.8125 L 25.0625 -59.8125 L 25.0625 6.171875 C 25.0625 11.535156 23.503906 15.789062 20.390625 18.9375 C 17.285156 22.09375 12.976562 23.671875 7.46875 23.671875 Z M 15.859375 -66.6875 C 12.972656 -66.6875 10.476562 -67.734375 8.375 -69.828125 C 6.28125 -71.929688 5.234375 -74.421875 5.234375 -77.296875 C 5.234375 -80.171875 6.28125 -82.675781 8.375 -84.8125 C 10.476562 -86.957031 12.972656 -88.03125 15.859375 -88.03125 C 18.734375 -88.03125 21.21875 -86.957031 23.3125 -84.8125 C 25.414062 -82.675781 26.46875 -80.171875 26.46875 -77.296875 C 26.46875 -74.421875 25.414062 -71.929688 23.3125 -69.828125 C 21.21875 -67.734375 18.734375 -66.6875 15.859375 -66.6875 Z M 15.859375 -66.6875 "/></g></g><g style="fill:#ff914d;fill-opacity:1;"><g transform="translate(605.714805, 265.298943)"><path style="stroke:none" d="M 30.78125 1.40625 C 25.5 1.40625 20.835938 0.046875 16.796875 -2.671875 C 12.753906 -5.398438 9.601562 -9.078125 7.34375 -13.703125 C 5.09375 -18.328125 3.96875 -23.550781 3.96875 -29.375 C 3.96875 -35.4375 5.285156 -40.859375 7.921875 -45.640625 C 10.566406 -50.421875 14.316406 -54.210938 19.171875 -57.015625 C 24.035156 -59.816406 29.769531 -61.21875 36.375 -61.21875 C 43.0625 -61.21875 48.753906 -59.835938 53.453125 -57.078125 C 58.160156 -54.316406 61.773438 -50.546875 64.296875 -45.765625 C 66.828125 -40.984375 68.09375 -35.640625 68.09375 -29.734375 L 68.09375 0 L 50.375 0 L 50.375 -9.5625 L 49.90625 -9.5625 C 48.8125 -7.457031 47.410156 -5.570312 45.703125 -3.90625 C 43.992188 -2.238281 41.914062 -0.9375 39.46875 0 C 37.019531 0.9375 34.125 1.40625 30.78125 1.40625 Z M 36.140625 -14.21875 C 38.859375 -14.21875 41.25 -14.898438 43.3125 -16.265625 C 45.375 -17.628906 46.945312 -19.515625 48.03125 -21.921875 C 49.125 -24.328125 49.671875 -27.007812 49.671875 -29.96875 C 49.671875 -32.84375 49.125 -35.445312 48.03125 -37.78125 C 46.945312 -40.113281 45.375 -41.957031 43.3125 -43.3125 C 41.25 -44.675781 38.859375 -45.359375 36.140625 -45.359375 C 33.347656 -45.359375 30.898438 -44.675781 28.796875 -43.3125 C 26.703125 -41.957031 25.109375 -40.113281 24.015625 -37.78125 C 22.929688 -35.445312 22.390625 -32.84375 22.390625 -29.96875 C 22.390625 -27.007812 22.929688 -24.328125 24.015625 -21.921875 C 25.109375 -19.515625 26.703125 -17.628906 28.796875 -16.265625 C 30.898438 -14.898438 33.347656 -14.21875 36.140625 -14.21875 Z M 48.5 -67.265625 C 46.09375 -67.265625 44.03125 -68.140625 42.3125 -69.890625 C 40.601562 -71.640625 39.75 -73.71875 39.75 -76.125 C 39.75 -78.539062 40.601562 -80.601562 42.3125 -82.3125 C 44.03125 -84.019531 46.09375 -84.875 48.5 -84.875 C 50.90625 -84.875 52.984375 -84.019531 54.734375 -82.3125 C 56.484375 -80.601562 57.359375 -78.539062 57.359375 -76.125 C 57.359375 -73.71875 56.484375 -71.640625 54.734375 -69.890625 C 52.984375 -68.140625 50.90625 -67.265625 48.5 -67.265625 Z M 23.65625 -67.265625 C 21.25 -67.265625 19.191406 -68.140625 17.484375 -69.890625 C 15.773438 -71.640625 14.921875 -73.71875 14.921875 -76.125 C 14.921875 -78.539062 15.773438 -80.601562 17.484375 -82.3125 C 19.191406 -84.019531 21.25 -84.875 23.65625 -84.875 C 26.070312 -84.875 28.15625 -84.019531 29.90625 -82.3125 C 31.65625 -80.601562 32.53125 -78.539062 32.53125 -76.125 C 32.53125 -73.71875 31.65625 -71.640625 29.90625 -69.890625 C 28.15625 -68.140625 26.070312 -67.265625 23.65625 -67.265625 Z M 23.65625 -67.265625 "/></g></g><g style="fill:#ff914d;fill-opacity:1;"><g transform="translate(679.982572, 265.298943)"><path style="stroke:none" d="M 6.765625 0 L 6.765625 -85.109375 L 24.828125 -85.109375 L 24.828125 0 Z M 6.765625 0 "/></g></g><g style="fill:#ff914d;fill-opacity:1;"><g transform="translate(711.461844, 265.298943)"><path style="stroke:none" d="M 38.359375 -61.21875 C 43.410156 -61.21875 47.898438 -60.421875 51.828125 -58.828125 C 55.753906 -57.234375 59.09375 -54.976562 61.84375 -52.0625 C 64.601562 -49.144531 66.722656 -45.722656 68.203125 -41.796875 C 69.679688 -37.867188 70.421875 -33.535156 70.421875 -28.796875 C 70.421875 -22.890625 69.195312 -17.660156 66.75 -13.109375 C 64.300781 -8.566406 60.9375 -5.007812 56.65625 -2.4375 C 52.382812 0.125 47.410156 1.40625 41.734375 1.40625 C 39.328125 1.40625 37.054688 1.09375 34.921875 0.46875 C 32.785156 -0.15625 30.84375 -1.050781 29.09375 -2.21875 C 27.34375 -3.382812 25.882812 -4.820312 24.71875 -6.53125 L 24.375 -6.53125 L 24.375 25.296875 L 6.296875 25.296875 L 6.296875 -28.796875 C 6.296875 -35.398438 7.613281 -41.113281 10.25 -45.9375 C 12.894531 -50.757812 16.628906 -54.507812 21.453125 -57.1875 C 26.273438 -59.875 31.910156 -61.21875 38.359375 -61.21875 Z M 38.359375 -45.59375 C 35.554688 -45.59375 33.125 -44.910156 31.0625 -43.546875 C 29.007812 -42.179688 27.4375 -40.3125 26.34375 -37.9375 C 25.257812 -35.570312 24.71875 -32.914062 24.71875 -29.96875 C 24.71875 -27.007812 25.257812 -24.363281 26.34375 -22.03125 C 27.4375 -19.695312 29.007812 -17.847656 31.0625 -16.484375 C 33.125 -15.128906 35.554688 -14.453125 38.359375 -14.453125 C 41.160156 -14.453125 43.570312 -15.128906 45.59375 -16.484375 C 47.613281 -17.847656 49.1875 -19.695312 50.3125 -22.03125 C 51.4375 -24.363281 52 -27.007812 52 -29.96875 C 52 -32.914062 51.4375 -35.570312 50.3125 -37.9375 C 49.1875 -40.3125 47.613281 -42.179688 45.59375 -43.546875 C 43.570312 -44.910156 41.160156 -45.59375 38.359375 -45.59375 Z M 38.359375 -45.59375 "/></g></g><g style="fill:#ff914d;fill-opacity:1;"><g transform="translate(785.846192, 265.298943)"><path style="stroke:none" d="M 38.015625 0 C 31.242188 0 25.289062 -1.257812 20.15625 -3.78125 C 15.03125 -6.3125 11.050781 -9.8125 8.21875 -14.28125 C 5.382812 -18.75 3.96875 -23.9375 3.96875 -29.84375 C 3.96875 -36.375 5.328125 -41.972656 8.046875 -46.640625 C 10.765625 -51.304688 14.394531 -54.898438 18.9375 -57.421875 C 23.488281 -59.953125 28.523438 -61.21875 34.046875 -61.21875 C 40.335938 -61.21875 45.601562 -59.894531 49.84375 -57.25 C 54.082031 -54.601562 57.289062 -51.003906 59.46875 -46.453125 C 61.644531 -41.910156 62.734375 -36.722656 62.734375 -30.890625 C 62.734375 -29.878906 62.671875 -28.691406 62.546875 -27.328125 C 62.429688 -25.972656 62.296875 -24.910156 62.140625 -24.140625 L 22.96875 -24.140625 C 23.4375 -22.117188 24.328125 -20.40625 25.640625 -19 C 26.960938 -17.601562 28.632812 -16.570312 30.65625 -15.90625 C 32.6875 -15.25 34.941406 -14.921875 37.421875 -14.921875 L 55.734375 -14.921875 L 55.734375 0 Z M 22.5 -35.4375 L 45.234375 -35.4375 C 45.078125 -36.6875 44.84375 -37.894531 44.53125 -39.0625 C 44.226562 -40.226562 43.742188 -41.253906 43.078125 -42.140625 C 42.421875 -43.035156 41.664062 -43.8125 40.8125 -44.46875 C 39.957031 -45.132812 38.960938 -45.660156 37.828125 -46.046875 C 36.703125 -46.441406 35.441406 -46.640625 34.046875 -46.640625 C 32.253906 -46.640625 30.660156 -46.328125 29.265625 -45.703125 C 27.867188 -45.078125 26.703125 -44.238281 25.765625 -43.1875 C 24.835938 -42.144531 24.117188 -40.941406 23.609375 -39.578125 C 23.109375 -38.222656 22.738281 -36.84375 22.5 -35.4375 Z M 22.5 -35.4375 "/></g></g><g style="fill:#ff914d;fill-opacity:1;"><g transform="translate(852.302417, 265.298943)"><path style="stroke:none" d="M 6.765625 0 L 6.765625 -34.390625 C 6.765625 -39.367188 7.96875 -43.878906 10.375 -47.921875 C 12.78125 -51.960938 16.21875 -55.1875 20.6875 -57.59375 C 25.164062 -60.007812 30.472656 -61.21875 36.609375 -61.21875 C 42.828125 -61.21875 48.128906 -60.007812 52.515625 -57.59375 C 56.910156 -55.1875 60.273438 -51.960938 62.609375 -47.921875 C 64.941406 -43.878906 66.109375 -39.367188 66.109375 -34.390625 L 66.109375 0 L 48.03125 0 L 48.03125 -33.921875 C 48.03125 -36.023438 47.523438 -37.953125 46.515625 -39.703125 C 45.503906 -41.453125 44.125 -42.847656 42.375 -43.890625 C 40.632812 -44.941406 38.675781 -45.46875 36.5 -45.46875 C 34.238281 -45.46875 32.234375 -44.941406 30.484375 -43.890625 C 28.734375 -42.847656 27.351562 -41.453125 26.34375 -39.703125 C 25.332031 -37.953125 24.828125 -36.023438 24.828125 -33.921875 L 24.828125 0 Z M 6.765625 0 "/></g></g></g></svg>