<svg xmlns="http://www.w3.org/2000/svg" version="1.1" xmlns:xlink="http://www.w3.org/1999/xlink" width="512" height="512" x="0" y="0" viewBox="0 0 480 480" style="enable-background:new 0 0 512 512" xml:space="preserve"><g><linearGradient id="a" x1="16.407" x2="394.375" y1="420.008" y2="42.04" gradientUnits="userSpaceOnUse"><stop stop-opacity="1" stop-color="#41dfd0" offset="0"></stop><stop stop-opacity="1" stop-color="#53d4c9" offset="1"></stop></linearGradient><path fill="url(#a)" d="M367.719 192a8 8 0 0 1 8-8h16v-16a8 8 0 0 1 16 0v24a8 8 0 0 1-8 8h-24a8 8 0 0 1-8-8zm-212.207-56c0-17.672 14.328-32 32-32s32 14.328 32 32-14.328 32-32 32-32-14.328-32-32zm16 0c0 8.836 7.164 16 16 16s16-7.164 16-16-7.164-16-16-16-16 7.164-16 16zM.879 151.336c-3.414-12.262 3.34-25.055 15.39-29.156 12.047-4.102 25.204 1.918 29.977 13.715l77.297-1.192c0-.59 0-1.191.047-1.773L98.215 112a7.924 7.924 0 0 1-2.617-8h-47.88a8 8 0 0 1-8-8V62.527C28.7 58.633 22.09 47.363 24.067 35.844 26.043 24.32 36.031 15.902 47.72 15.902s21.68 8.418 23.656 19.942c1.977 11.52-4.637 22.789-15.656 26.683V88h48c.207 0 .375.105.586.121l8.062-13.976a7.996 7.996 0 0 1 9.735-3.489L152.926 82.2a65.023 65.023 0 0 1 5.289-3.086l5.402-32.425A7.996 7.996 0 0 1 171.512 40h12.207V8a8 8 0 0 1 8-8h80a8 8 0 0 1 8 8v16h54.168l3.328-4.648a8.001 8.001 0 0 1 10.082-2.512l23.2 11.617c47.444 23.512 77.398 71.957 77.222 124.91a62.179 62.179 0 0 1-14.559 40.16l24.871 56A15.998 15.998 0 0 1 443.406 272H431.72v24a8.06 8.06 0 0 1-2.352 5.664l-13.648 13.649V360a8 8 0 0 1-8 8h-48c-5.598 0-23.871-9.383-54.086-27.617l-17.914 29.832v42.473l53.656 53.656A8 8 0 0 1 335.719 480h-256a8.002 8.002 0 0 1-7.39-4.938 8.014 8.014 0 0 1 1.734-8.718l69.656-69.656V280a8 8 0 0 1 8-8h24v-40h-4.207a7.999 7.999 0 0 1-7.895-6.68l-5.402-32.433a65.023 65.023 0 0 1-5.29-3.086l-25.597 9.597.39 40.532a8.009 8.009 0 0 1-2.316 5.703A8.008 8.008 0 0 1 119.72 248h-48a6.95 6.95 0 0 1-1.383-.281c-3.777 11.12-15.05 17.875-26.637 15.96-11.59-1.913-20.09-11.933-20.09-23.679s8.5-21.766 20.09-23.68c11.586-1.914 22.86 4.84 26.637 15.961a6.95 6.95 0 0 1 1.383-.281h39.93l-.329-36-14.953-25.887A8.003 8.003 0 0 1 98.215 160l10.976-9.04-62.914.977a23.936 23.936 0 0 1-45.398-.57zM55.719 240a8 8 0 1 0-16.001 0 8 8 0 0 0 16 0zm-16-200a8 8 0 1 0 16 0 8 8 0 0 0-16 0zm152 232h88v-16a8.005 8.005 0 0 1 5.031-7.434L306.176 240h-18.457v-16h32v-13.336l-14.262-19.016a7.345 7.345 0 0 1-1.738.352H266.03l-3.383 5.855a8 8 0 0 1-9.738 3.489L222.121 189.8a63.96 63.96 0 0 1-5.281 3.086l-5.41 32.433a7.994 7.994 0 0 1-7.887 6.68h-11.824zm85.09-160-19.403 16h38.313V96h-20.45l3.38 5.855a8.002 8.002 0 0 1-1.84 10.145zm-19.403 32 19.403 16a8.006 8.006 0 0 1 1.84 10.176l-3.38 5.824h20.45v-32zM239.72 336v-48h-16v88h48v-4.688l-29.656-29.656a8.001 8.001 0 0 1-2.344-5.656zM177.32 464h62.399v-72h-16v16a7.99 7.99 0 0 1-1.977 5.273l-30.023 34.313V448h-.367zm-21.265 0 19.664-22.398V384h16v39.281l16-18.289V288h-48v112a8.001 8.001 0 0 1-2.344 5.656L99.031 464zm117.976-42.344A8.001 8.001 0 0 1 271.72 416v-24h-16v72h60.687zm17.91-89.601c-2.812-1.735-5.511-3.383-8.496-5.254A8.01 8.01 0 0 1 279.72 320v-32h-24v44.688l22.402 22.402zM311.72 82.559v90.777l22.402 29.863A8.028 8.028 0 0 1 335.72 208v32a8.005 8.005 0 0 1-5.032 7.434l-34.968 13.98v54.145c3.726 2.312 7.504 4.632 11.273 6.921h.047l.04.04a425.582 425.582 0 0 0 53.401 29.52l39.239-.04v-40c0-2.121.844-4.156 2.344-5.656l3.09-3.086a62.038 62.038 0 0 1-35.09-17.602 8 8 0 0 1 11.312-11.312A46.309 46.309 0 0 0 414.344 288h1.375v-24a8 8 0 0 1 8-8h19.687l-27-60.754a7.998 7.998 0 0 1 1.656-8.902 46.327 46.327 0 0 0 13.657-32.977c.16-46.883-26.352-89.777-68.36-110.597l-17.105-8.563zM199.719 40h3.793a7.997 7.997 0 0 1 7.886 6.68l5.41 32.433a63.897 63.897 0 0 1 5.278 3.086l30.824-11.543a8 8 0 0 1 9.738 3.489L266.031 80h29.688c0-1.668.523-3.293 1.496-4.648L322.465 40h-50.746a8 8 0 0 1-8-8V16h-64zm-62.703 83.246a8.008 8.008 0 0 1 2.863 7.129 43.042 43.042 0 0 0 0 11.25v.55c0 .184.055.177.055.274a2.65 2.65 0 0 1-.063.344 7.825 7.825 0 0 1-.512 2.758l-.047.09a7.802 7.802 0 0 1-1.44 2.207 5.5 5.5 0 0 1-.442.464c-.125.153-.262.301-.407.442L113.617 168l9.223 16 28.406-10.648a8.009 8.009 0 0 1 7.594 1.082 47.863 47.863 0 0 0 9.734 5.68 8.008 8.008 0 0 1 4.738 6.038L178.278 216h18.457l4.977-29.855a7.995 7.995 0 0 1 4.734-6.04 48.363 48.363 0 0 0 9.739-5.68 7.986 7.986 0 0 1 7.582-1.081L252.184 184l9.214-16L238 148.742a7.981 7.981 0 0 1-2.855-7.125 43.383 43.383 0 0 0 0-11.25 7.992 7.992 0 0 1 2.855-7.129L261.398 104l-9.214-16-28.418 10.648a7.986 7.986 0 0 1-7.582-1.082 48.363 48.363 0 0 0-9.739-5.68 7.995 7.995 0 0 1-4.734-6.038L196.734 56H178.29l-4.969 29.855a8.008 8.008 0 0 1-4.738 6.04 47.863 47.863 0 0 0-9.734 5.68 7.998 7.998 0 0 1-7.594 1.081L122.84 88l-9.223 16zM16.109 146.45c1.356 4.203 5.86 6.52 10.067 5.168a8.003 8.003 0 0 0 3.27-13.797 8.012 8.012 0 0 0-8.169-1.406c-4.203 1.356-6.52 5.86-5.168 10.066zM191.72 320h-16v16h16zm0 32h-16v16h16zm48-128h-16v16h16zm32 0h-16v16h16zm72-144h-16v32h16zm0 48h-16v16h16zm0 32h-16v16h16zm0 0" opacity="1" data-original="url(#a)"></path></g></svg>