<svg xmlns="http://www.w3.org/2000/svg" version="1.1" xmlns:xlink="http://www.w3.org/1999/xlink" width="512" height="512" x="0" y="0" viewBox="0 0 512 512" style="enable-background:new 0 0 512 512" xml:space="preserve" class=""><g><path d="M241.288 262h29.424c9.389 0 17-7.611 17-17s-7.611-17-17-17h-29.424c-9.389 0-17 7.611-17 17s7.611 17 17 17zm0-22h29.424a5 5 0 0 1 0 10h-29.424a5 5 0 0 1 0-10zM107.914 371.534c29.19 3.12 55.383-18.014 58.504-47.204s-18.014-55.383-47.204-58.504S63.83 283.84 60.71 313.03a53.16 53.16 0 0 0 11.485 39.028 52.798 52.798 0 0 0 35.719 19.476zM72.642 314.3c2.416-22.602 22.697-38.966 45.3-36.55 22.602 2.416 38.966 22.697 36.55 45.3s-22.697 38.966-45.3 36.55a41.152 41.152 0 0 1-27.658-15.082 41.214 41.214 0 0 1-8.892-30.218zM392.784 265.825c-29.191 3.121-50.324 29.315-47.203 58.506s29.315 50.324 58.506 47.203 50.324-29.315 47.203-58.506v-.003c-3.155-29.172-29.327-50.286-58.506-47.2zm37.682 78.7c-14.272 17.69-40.183 20.461-57.873 6.189s-20.461-40.183-6.189-57.873a41.156 41.156 0 0 1 27.656-15.081c22.585-2.431 42.863 13.907 45.294 36.492l.006.055a40.887 40.887 0 0 1-8.894 30.215zM124.4 149.29a6 6 0 0 0 7.925-3.033v-.001l2.129-4.771a5.999 5.999 0 0 0-2.782-8.016 5.999 5.999 0 0 0-8.172 3.132l-2.129 4.77a5.999 5.999 0 0 0 3.029 7.919zM119.569 160.121a6 6 0 0 0-7.924 3.035l-20.376 45.668a6 6 0 0 0 10.959 4.889l20.372-45.668a6 6 0 0 0-3.031-7.924z" fill="#53d4c9" opacity="1" data-original="#000000"></path><path d="M20.364 310.53c-4.382 49.778 31.724 94.606 81.29 100.952 4.01.513 8.048.77 12.09.77a92.867 92.867 0 0 0 58.568-20.752 93.81 93.81 0 0 0 18.474-19.93l13.9 4.19a177.895 177.895 0 0 0 102.653.105l13.963-4.178a93.89 93.89 0 0 0 18.389 19.811 92.854 92.854 0 0 0 58.568 20.755 95.398 95.398 0 0 0 10.126-.542c51.395-5.516 88.588-51.652 83.072-103.047a93.592 93.592 0 0 0-14.2-40.421l-65-130.647c-11.459-25.336-37.892-40.45-65.539-37.475l-.109.011c-34.805 3.799-60.258 34.618-57.41 69.514a97.56 97.56 0 0 0-66.368-.083c2.862-35.533-23.623-66.658-59.155-69.52-27.1-2.183-52.663 12.85-63.928 37.595l-65 130.623a93.156 93.156 0 0 0-14.384 42.269zM303.9 364.365a165.953 165.953 0 0 1-95.75-.1l-11.083-3.342a93.561 93.561 0 0 0 9.437-31.6h.017l.06-.589c0-.037.011-.074.015-.111.015-.143.026-.1.04-.247l2.7-26.38h93.354l2.678 26.2c.014.143.025.287.04.43 0 .037.011.073.015.11l.06.589h.017a93.525 93.525 0 0 0 9.5 31.719zM466.819 274.2l8.348 16.78c15.261 42.421-6.757 89.181-49.178 104.442a81.657 81.657 0 0 1-18.883 4.349c-44.739 4.784-84.9-27.568-89.751-72.3l-.03-.3c-4.663-44.812 27.884-84.92 72.696-89.584a81.579 81.579 0 0 1 76.798 36.613zM301.225 169.623c-2.887-28.72 17.905-54.403 46.597-57.558l-.003-.004.109-.01c22.553-2.439 44.116 9.903 53.434 30.585.031.067.062.134.095.2l48.7 97.874c-40.25-26.697-94.206-18.37-124.534 19.219a94.013 94.013 0 0 0-12.987 21.35l-10.312-100.9zM110.54 142.852c.033-.066.064-.139.095-.207 11.966-26.442 43.103-38.177 69.545-26.21 20.636 9.339 32.966 30.849 30.596 53.375l-3.11 30.583a6 6 0 1 0 11.937 1.214l1.89-18.584a85.338 85.338 0 0 1 69.048.106L301.464 290h-90.9l4.751-46.389a6 6 0 0 0-11.94-1.223l-4.01 39.079a94.619 94.619 0 0 0-12.987-21.442c-30.306-37.618-84.27-45.975-124.535-19.287zM45.181 274.2a81.77 81.77 0 0 1 17.173-19 80.933 80.933 0 0 1 51.055-18.093c2.949.001 5.895.158 8.827.472 44.718 4.781 77.126 44.861 72.439 89.589l-.03.3c-4.973 44.767-45.296 77.027-90.063 72.054-44.553-4.949-76.76-44.928-72.113-89.513a82.105 82.105 0 0 1 4.364-19.025z" fill="#53d4c9" opacity="1" data-original="#000000"></path></g></svg>