<svg xmlns="http://www.w3.org/2000/svg" version="1.1" xmlns:xlink="http://www.w3.org/1999/xlink" width="512" height="512" x="0" y="0" viewBox="0 0 512 512" style="enable-background:new 0 0 512 512" xml:space="preserve" class=""><g><path fill="#d4e1f4" d="M270.729 102.385a125.148 125.148 0 0 0-16.569-.885c-69.57.92-125.87 57.6-125.87 127.39a127.888 127.888 0 0 0 48.74 100.1 76.695 76.695 0 0 1 28.65 60.19v1.13h-3.78a12.165 12.165 0 1 0 0 24.33h1.34V466h-1.34a12.165 12.165 0 1 0 0 24.33h30a12.164 12.164 0 0 1-4.829-23.33h6.169v-53.36h-6.167a12.162 12.162 0 0 1 0-22.33h8.609v-2.13a76.695 76.695 0 0 0-28.65-60.19 127.888 127.888 0 0 1-48.74-100.1c-.002-65.238 49.194-119.014 112.437-126.505z" opacity="1" data-original="#d4e1f4" class=""></path><g fill="#1ae5be"><path d="M256 15.672a6 6 0 0 0-6 6v50.539a6 6 0 1 0 12 0V21.672a6 6 0 0 0-6-6zM467 227h-50.539a6 6 0 0 0 0 12H467a6 6 0 0 0 0-12zM95.539 227H45a6 6 0 0 0 0 12h50.539a6 6 0 0 0 0-12zM369.463 125.209a5.981 5.981 0 0 0 4.243-1.758l35.736-35.736a6 6 0 1 0-8.485-8.485l-35.737 35.737a6 6 0 0 0 4.243 10.242zM138.294 341.893l-35.736 35.736a6 6 0 1 0 8.485 8.484l35.737-35.736a6 6 0 1 0-8.486-8.484zM373.706 341.893a6 6 0 0 0-8.486 8.484l35.737 35.736a6 6 0 0 0 8.485-8.484zM111.043 79.23a6 6 0 1 0-8.485 8.485l35.736 35.736a6 6 0 1 0 8.486-8.484z" fill="#feb844" opacity="1" data-original="#1ae5be" class=""></path></g><path fill="#59e5dc" d="M180.113 150.8a120.448 120.448 0 0 0-35.886 86.079 6 6 0 0 0 12 0 108.536 108.536 0 0 1 32.339-77.562 6 6 0 1 0-8.453-8.517zM207.314 130.459c-3.09 1.7-6.138 3.551-9.06 5.5a6 6 0 1 0 6.672 9.974 109.855 109.855 0 0 1 8.167-4.961 6 6 0 0 0-5.779-10.518z" opacity="1" data-original="#0635c9" class=""></path><path fill="#59e5dc" d="M349.174 134.18c-25.75-25.41-59.532-39.165-95.093-38.676a133.552 133.552 0 0 0-131.787 133.383c0 40.881 18.593 79.079 51.012 104.8a69.986 69.986 0 0 1 26.213 50.8 18.285 18.285 0 0 0-15.909 17.99A17.812 17.812 0 0 0 197 420.012v40.613A17.625 17.625 0 0 0 183.61 478a18.151 18.151 0 0 0 18.29 18h108.2a18.151 18.151 0 0 0 18.288-18A17.625 17.625 0 0 0 315 460.625v-40.612a17.813 17.813 0 0 0 13.391-17.539 18.231 18.231 0 0 0-16.826-18.094 71.783 71.783 0 0 1 27.294-51.218 132.586 132.586 0 0 0 50.3-104.289c-.001-35.626-14.207-69.256-39.985-94.693zM316.268 478a6.034 6.034 0 0 1-6.165 6H201.9a6 6 0 1 1 0-12h108.2a6.034 6.034 0 0 1 6.168 6zm-.916-72.244a6.97 6.97 0 0 1-6.01 3.244H255a6 6 0 0 0-6 6 6 6 0 0 0 6 6h48v39h-94v-39h4a6 6 0 0 0 6-6 6 6 0 0 0-6-6h-10.343a6.968 6.968 0 0 1-6.009-3.244A6.475 6.475 0 0 1 201.9 396h108.2a6.475 6.475 0 0 1 5.252 9.756zm16-82.137A84.435 84.435 0 0 0 299.478 384H262V269h11.722a4.046 4.046 0 0 1 0 8.092 6.012 6.012 0 0 0 0 12.023 16.058 16.058 0 0 0 0-32.115h-35.444a16.046 16.046 0 0 0 0 32.092 5.989 5.989 0 1 0 0-11.977 4.058 4.058 0 0 1 0-8.115H250v115h-38.456a82.987 82.987 0 0 0-30.78-59.867c-29.532-23.432-46.47-58.127-46.47-95.324a121.518 121.518 0 0 1 119.945-121.326c32.323-.446 63.051 12.09 86.5 35.228 23.476 23.166 36.406 53.69 36.409 86.082a120.526 120.526 0 0 1-45.793 94.826z" opacity="1" data-original="#0635c9" class=""></path></g></svg>