<svg xmlns="http://www.w3.org/2000/svg" version="1.1" xmlns:xlink="http://www.w3.org/1999/xlink" width="512" height="512" x="0" y="0" viewBox="0 0 512 512" style="enable-background:new 0 0 512 512" xml:space="preserve" class=""><g><path fill="#f1b759" d="M56 450.72V95.73A19.766 19.766 0 0 1 76 76H46a19.766 19.766 0 0 0-20 19.73v354.99a20 20 0 0 0 19.91 20h30a20 20 0 0 1-19.91-20z" opacity="1" data-original="#d4e1f4" class=""></path><g fill="#1ae5be"><path d="M243 199a10 10 0 0 0-10-10h-46a10 10 0 0 0-10 10v41a10 10 0 0 0 10 10h46a10 10 0 0 0 10-10zm-54 2h42v37h-42zM335 199a10 10 0 0 0-10-10h-46a10 10 0 0 0-10 10v41a10 10 0 0 0 10 10h46a10 10 0 0 0 10-10zm-54 2h42v37h-42zM427 199a10 10 0 0 0-10-10h-46a10 10 0 0 0-10 10v41a10 10 0 0 0 10 10h46a10 10 0 0 0 10-10zm-12 39h-42v-37h42zM150 285a10 10 0 0 0-10-10H94a10 10 0 0 0-10 10v41a10 10 0 0 0 10 10h46a10 10 0 0 0 10-10zm-54 2h43v37H96zM243 285a10 10 0 0 0-10-10h-46a10 10 0 0 0-10 10v41a10 10 0 0 0 10 10h46a10 10 0 0 0 10-10zm-54 2h42v37h-42zM335 285a10 10 0 0 0-10-10h-46a10 10 0 0 0-10 10v41a10 10 0 0 0 10 10h46a10 10 0 0 0 10-10zm-54 2h42v37h-42zM427 285a10 10 0 0 0-10-10h-46a10 10 0 0 0-10 10v41a10 10 0 0 0 10 10h46a10 10 0 0 0 10-10zm-12 39h-42v-37h42zM150 370a10 10 0 0 0-10-10H94a10 10 0 0 0-10 10v41a10 10 0 0 0 10 10h46a10 10 0 0 0 10-10zm-11 40H96v-38h43zM243 370a10 10 0 0 0-10-10h-46a10 10 0 0 0-10 10v41a10 10 0 0 0 10 10h46a10 10 0 0 0 10-10zm-54 2h42v38h-42zM335 370a10 10 0 0 0-10-10h-46a10 10 0 0 0-10 10v41a10 10 0 0 0 10 10h46a10 10 0 0 0 10-10zm-54 2h42v38h-42zM427 370a10 10 0 0 0-10-10h-46a10 10 0 0 0-10 10v41a10 10 0 0 0 10 10h46a10 10 0 0 0 10-10zm-12 40h-42v-38h42z" fill="#f1b759" opacity="1" data-original="#1ae5be" class=""></path></g><path fill="#53d4c9" d="M58 170.113a6 6 0 0 0-6 6v4.778a6 6 0 0 0 12 0v-4.778a6 6 0 0 0-6-6zM58 196.713a6 6 0 0 0-6 6v74.178a6 6 0 0 0 12 0v-74.178a6 6 0 0 0-6-6z" opacity="1" data-original="#0635c9" class=""></path><path fill="#53d4c9" d="M466 70h-16V57.353a24 24 0 0 0-48 0V70h-37V57.353a24 24 0 0 0-48 0V70h-37V57.353a24 24 0 0 0-48 0V70h-37V57.353a24 24 0 0 0-48 0V70h-37V57.353a24 24 0 0 0-48 0V70H46a25.8 25.8 0 0 0-26 25.726v355A26.206 26.206 0 0 0 45.881 476.9l420 2.1H466a26.3 26.3 0 0 0 26-26.353V95.726A25.8 25.8 0 0 0 466 70zm-52-12.647a12 12 0 0 1 24 0v42a12 12 0 0 1-24 0zm-85 0a12 12 0 0 1 24 0v42a12 12 0 1 1-24 0zm-85 0a12 12 0 0 1 24 0v42a12 12 0 1 1-24 0zm-85 0a12 12 0 0 1 24 0v42a12 12 0 1 1-24 0zm-85 0a12 12 0 0 1 24 0v42a12 12 0 1 1-24 0zM480 143H132a6 6 0 0 0-6 6 6 6 0 0 0 6 6h348v297.571A14.294 14.294 0 0 1 466 467h-.066l-420-2.1A14.182 14.182 0 0 1 32 450.722V155h58a6 6 0 0 0 6-6 6 6 0 0 0-6-6H32V95.726A13.726 13.726 0 0 1 45.726 82H62v16.807c0 13.427 10.987 24.769 24.411 24.543a24.029 24.029 0 0 0 23.589-24V82h37v16.807c0 13.427 10.987 24.769 24.411 24.543a24.029 24.029 0 0 0 23.589-24V82h37v16.807c0 13.427 10.987 24.769 24.411 24.543a24.029 24.029 0 0 0 23.589-24V82h37v16.807c0 13.427 10.987 24.769 24.411 24.543a24.029 24.029 0 0 0 23.589-24V82h37v16.807c0 13.427 10.987 24.769 24.411 24.543a24.029 24.029 0 0 0 23.589-24V82h16a14 14 0 0 1 14 14z" opacity="1" data-original="#0635c9" class=""></path></g></svg>