<svg xmlns="http://www.w3.org/2000/svg" version="1.1" xmlns:xlink="http://www.w3.org/1999/xlink" width="512" height="512" x="0" y="0" viewBox="0 0 512 512" style="enable-background:new 0 0 512 512" xml:space="preserve" class=""><g><circle cx="256" cy="256" r="209.455" style="" fill="#ecf0f9" data-original="#ecf0f9" class=""></circle><path d="M232.727 232.727 128 407.273l174.545-104.728L407.273 128z" style="" fill="#d5e3ef" data-original="#d5e3ef" class=""></path><path d="M256 0C114.036 0 0 114.036 0 256s114.036 256 256 256 256-114.036 256-256S397.964 0 256 0zm0 465.455C140.8 465.455 46.545 371.2 46.545 256S140.8 46.545 256 46.545 465.455 140.8 465.455 256 371.2 465.455 256 465.455z" style="" fill="#53d4c9" data-original="#595a66" class="" opacity="1"></path><path d="M64 273.455C64 158.255 158.255 64 273.455 64c53.527 0 102.4 19.782 138.473 53.527C373.527 73.309 318.836 46.545 256 46.545 140.8 46.545 46.545 140.8 46.545 256c0 62.836 26.764 117.527 70.982 155.927C83.782 375.855 64 326.982 64 273.455z" style="" fill="#d5e3ef" data-original="#d5e3ef" class=""></path><path d="M58.182 267.636H11.636C4.655 267.636 0 262.982 0 256c0-6.982 4.655-11.636 11.636-11.636h46.545c6.982 0 11.636 4.655 11.636 11.636.001 6.982-4.653 11.636-11.635 11.636z" style="" fill="#53d4c9" data-original="#595a66" class="" opacity="1"></path><path d="M47.709 244.364c-1.164 3.491-1.164 8.145-1.164 11.636 0 3.491 0 8.145 1.164 11.636h10.473c2.327 0 4.655-1.164 5.818-2.327 0-5.818 1.164-12.8 1.164-18.618-1.164-1.164-3.491-2.327-6.982-2.327H47.709z" style="" fill="#494a52" data-original="#494a52" class=""></path><path d="M500.364 267.636h-46.545c-6.982 0-11.636-4.655-11.636-11.636 0-6.982 4.655-11.636 11.636-11.636h46.545c6.982 0 11.636 4.655 11.636 11.636 0 6.982-4.655 11.636-11.636 11.636zM244.364 58.182V11.636C244.364 4.655 249.018 0 256 0c6.982 0 11.636 4.655 11.636 11.636v46.545c0 6.982-4.655 11.636-11.636 11.636-6.982.001-11.636-4.653-11.636-11.635z" style="" fill="#53d4c9" data-original="#595a66" class="" opacity="1"></path><path d="M256 46.545c-3.491 0-8.145 0-11.636 1.164v10.473c0 3.491 1.164 5.818 3.491 8.145 5.818-1.164 11.636-1.164 18.618-1.164 0-2.327 1.164-4.655 1.164-6.982V47.709c-3.492-1.164-8.146-1.164-11.637-1.164z" style="" fill="#494a52" data-original="#494a52" class=""></path><path d="M244.364 500.364v-46.545c0-6.982 4.655-11.636 11.636-11.636 6.982 0 11.636 4.655 11.636 11.636v46.545c0 6.982-4.655 11.636-11.636 11.636-6.982 0-11.636-4.655-11.636-11.636z" style="" fill="#53d4c9" data-original="#595a66" class="" opacity="1"></path><path d="M256 384c-6.982 0-11.636-4.655-11.636-11.636V139.636c0-6.982 4.655-11.636 11.636-11.636 6.982 0 11.636 4.655 11.636 11.636v232.727c0 6.982-4.654 11.637-11.636 11.637z" style="" fill="#b0c4d9" data-original="#b0c4d9" class=""></path><path d="m244.364 336.291 23.272-13.964V212.945l-23.272 12.8z" style="" fill="#89abc6" data-original="#89abc6"></path><path d="M313.018 313.018c-4.655 4.655-11.636 4.655-16.291 0l-98.909-98.909c-4.655-4.655-4.655-11.636 0-16.291s11.636-4.655 16.291 0l98.909 98.909c4.655 4.655 4.655 12.8 0 16.291z" style="" fill="#b0c4d9" data-original="#b0c4d9" class=""></path><path d="m292.073 308.364 10.472-5.819 5.819-10.472-65.164-65.164-10.473 5.818-5.818 10.473z" style="" fill="#89abc6" data-original="#89abc6"></path><path d="M128 256c0-6.982 4.655-11.636 11.636-11.636h232.727c6.982 0 11.636 4.655 11.636 11.636 0 6.982-4.655 11.636-11.636 11.636H139.636c-6.981 0-11.636-4.654-11.636-11.636z" style="" fill="#b0c4d9" data-original="#b0c4d9" class=""></path><path d="M212.945 267.636h109.382l13.964-23.272H225.745z" style="" fill="#89abc6" data-original="#89abc6"></path><path d="m290.909 290.909-69.818-69.818 174.545-104.727z" style="" fill="#f3f6f8" data-original="#f04b4d" class="" opacity="1"></path><path d="m221.091 221.091 69.818 69.818-174.545 104.727z" style="" fill="#59e5dc" data-original="#4c9cd6" class="" opacity="1"></path><path d="M221.091 221.091 116.364 395.636 256 256z" style="" fill="#53d4c9" data-original="#70b7e5" class="" opacity="1"></path><path d="m256 256 139.636-139.636-174.545 104.727z" style="" fill="#f1be55" data-original="#f26a56" class="" opacity="1"></path><circle cx="256" cy="256" r="23.273" style="" fill="#53d4c9" data-original="#595a66" class="" opacity="1"></circle><path d="M265.309 235.055c1.164 3.491 2.327 5.818 2.327 9.309 0 12.8-10.473 23.273-23.273 23.273-3.491 0-6.982-1.164-9.309-2.327 3.491 8.145 11.636 13.964 20.945 13.964 12.8 0 23.273-10.473 23.273-23.273.001-9.31-5.817-17.456-13.963-20.946z" style="" fill="#494a52" data-original="#494a52" class=""></path><path d="M256 0C114.036 0 0 114.036 0 256c12.8 0 23.273-9.309 24.436-22.109C30.255 178.036 54.691 126.836 93.091 89.6c37.236-36.073 86.109-60.509 140.8-65.164C246.691 23.273 256 12.8 256 0z" style="" fill="#6f707e" data-original="#6f707e" class=""></path><path d="M256 512c141.964 0 256-114.036 256-256-12.8 0-23.273 9.309-24.436 22.109-4.655 54.691-29.091 103.564-65.164 140.8-37.236 38.4-87.273 62.836-144.291 68.655C265.309 488.727 256 499.2 256 512z" style="" fill="#494a52" data-original="#494a52" class=""></path><circle cx="250.182" cy="250.182" r="5.818" style="" fill="#6f707e" data-original="#6f707e" class=""></circle></g></svg>