<svg xmlns="http://www.w3.org/2000/svg" version="1.1" xmlns:xlink="http://www.w3.org/1999/xlink" width="512" height="512" x="0" y="0" viewBox="0 0 512 512" style="enable-background:new 0 0 512 512" xml:space="preserve" class=""><g><path fill="#59e5dc" d="M56 127.318 30.01 106.09a19.9 19.9 0 0 0-4.01 12v275.82a19.9 19.9 0 0 0 5.41 13.66L56 386.3z" opacity="1" data-original="#d4e1f4"></path><g fill="#0635c9"><path d="M53 154.218a6 6 0 0 0-6 6V165a6 6 0 0 0 12 0v-4.778a6 6 0 0 0-6-6.004zM53 180.818a6 6 0 0 0-6 6V258a6 6 0 0 0 12 0v-71.182a6 6 0 0 0-6-6z" fill="#59e5dc" opacity="1" data-original="#0635c9" class=""></path><path d="M466 92H46a26 26 0 0 0-26 26v276a26 26 0 0 0 26 26h36a6 6 0 0 0 6-6 6 6 0 0 0-6-6H46a13.918 13.918 0 0 1-4.819-.916l172.728-149.418-7.85-9.087-173.29 149.877a13.95 13.95 0 0 1-.769-4.542V118.086A14.128 14.128 0 0 1 46.086 104H466a14 14 0 0 1 14 14v275.914a13.914 13.914 0 0 1-.769 4.536l-173.29-149.882-7.85 9.076 172.728 149.44A13.918 13.918 0 0 1 466 408H124a6 6 0 0 0-6 6 6 6 0 0 0 6 6h342a26 26 0 0 0 26-26V118a26 26 0 0 0-26-26z" fill="#59e5dc" opacity="1" data-original="#0635c9" class=""></path></g><path fill="#f1b759" d="M472.842 105.819 256 282.947 39.158 105.819a14.165 14.165 0 0 0-6.932 9.833L252.2 295.341a6 6 0 0 0 7.592 0l219.982-179.689a14.165 14.165 0 0 0-6.932-9.833z" opacity="1" data-original="#1ae5be" class=""></path></g></svg>