<svg xmlns="http://www.w3.org/2000/svg" version="1.1" xmlns:xlink="http://www.w3.org/1999/xlink" width="512" height="512" x="0" y="0" viewBox="0 0 512 512" style="enable-background:new 0 0 512 512" xml:space="preserve" class=""><g><path fill="#d4e1f4" d="M271 56.559q-7.428-.552-15-.559C145.54 56 56 145.54 56 256s89.54 200 200 200q7.569 0 15-.559C167.547 447.771 86 361.414 86 256S167.547 64.229 271 56.559z" opacity="1" data-original="#d4e1f4"></path><path fill="#edaa3e" d="M217.173 403.592a6 6 0 0 0 11.291 2.956L334.292 208.5a6 6 0 0 0-6.211-8.758l-45.77 7.091 16.957-77.266a6.307 6.307 0 0 0-1.185-5.187 6.14 6.14 0 0 0-4.676-2.38H218.3a6.127 6.127 0 0 0-5.9 5.047l-31.3 169.058a6.065 6.065 0 0 0 1.724 5.437 6 6 0 0 0 5.454 1.57l31.188-6.8zm-22.628-114.253L223.294 134h62.653l-17.235 78.676a6.137 6.137 0 0 0 1.487 5.465 6.032 6.032 0 0 0 5.292 1.859l42.555-6.575-88.339 165.325 1.92-89.791a6 6 0 0 0-6-6.124 5.892 5.892 0 0 0-1.279.068z" opacity="1" data-original="#1ae5be" class=""></path><g fill="#0635c9"><path d="M154.643 109.952a179.34 179.34 0 0 0-66.591 87.672 6 6 0 1 0 11.334 3.939 167.256 167.256 0 0 1 62.106-81.757 6 6 0 0 0-6.849-9.854zM179.842 95.339a176.446 176.446 0 0 0-7.272 3.66 6 6 0 1 0 5.639 10.592c2.223-1.183 4.5-2.331 6.781-3.412a6 6 0 1 0-5.148-10.84z" fill="#06c9c3" opacity="1" data-original="#0635c9" class=""></path><path d="M422.877 89.123A236 236 0 1 0 89.123 422.877 236 236 0 1 0 422.877 89.123zm-8.485 325.269A224 224 0 0 1 97.608 97.608a224 224 0 0 1 316.784 316.784z" fill="#06c9c3" opacity="1" data-original="#0635c9" class=""></path><path d="M258.771 50.018c-93.256-1.232-172.7 59.846-199.278 144.156A6 6 0 0 0 65.206 202h.008a5.977 5.977 0 0 0 5.7-4.173C95.706 119.136 169.386 61.924 256.173 62 362.659 62.093 449.73 149.016 450 255.5c.27 107.2-86.862 194.5-194 194.5-106.972 0-194-87.028-194-194q0-8.809.782-17.424a6 6 0 1 0-11.94-1.134Q50.014 246.613 50 256c0 113.589 92.411 206 206 206 113.773 0 206.3-92.711 206-206.552-.3-112.067-91.171-203.948-203.229-205.43z" fill="#06c9c3" opacity="1" data-original="#0635c9" class=""></path></g></g></svg>