<svg xmlns="http://www.w3.org/2000/svg" version="1.1" xmlns:xlink="http://www.w3.org/1999/xlink" width="512" height="512" x="0" y="0" viewBox="0 0 468 468" style="enable-background:new 0 0 512 512" xml:space="preserve" class=""><g><path fill="#ffffff" d="M419.861 92.745 233.988 16.002 48.225 92.745c-5.074 232.893 112.17 324.953 162.94 353.816 13.67 7.771 30.871 7.342 43.933-1.32 48.208-31.969 162.641-129.559 164.792-336.664.008-.286.054-10.949-.029-15.832z" opacity="1" data-original="#ffffff"></path><path fill="#e6e7e8" d="M281.136 376.548c-47.682-27.107-153.989-109.967-162.543-312.874L48.225 92.745c-5.074 232.893 112.169 324.953 162.94 353.816 13.67 7.771 30.871 7.342 43.933-1.32 20.475-13.578 52.894-39.002 83.585-79.616a300.1 300.1 0 0 1-13.614 9.604c-13.062 8.661-30.263 9.091-43.933 1.319z" opacity="1" data-original="#e6e7e8"></path><path fill="#59e5dc" d="M42.121 77.954 227.884 1.211a15.985 15.985 0 0 1 12.204-.001l185.874 76.743a16 16 0 0 1 9.891 14.52c2.373 140.57-51.262 286.094-171.919 366.107-17.955 11.907-41.996 12.511-60.668 1.896-53.176-30.232-176.29-126.615-171.03-368.079a16.001 16.001 0 0 1 9.885-14.443zm21.949 25.559c-1.269 216.555 107.563 302.168 154.997 329.135 8.528 4.848 19.204 4.556 27.197-.746 108.309-71.824 157.502-202.226 157.652-328.428L233.99 33.315z" opacity="1" data-original="#3e4d6c" class=""></path><path fill="#59e5dc" d="M294.179 252.387h-31.987v-23.572c0-15.755-12.652-28.572-28.204-28.572s-28.204 12.817-28.204 28.572v23.572h-31.987v-23.572c0-33.402 27.001-60.577 60.191-60.577s60.191 27.175 60.191 60.577z" opacity="1" data-original="#3e4d6c" class=""></path><path fill="#f1be55" d="M283.023 362.452h-98.071c-11.046 0-20-8.954-20-20V262.43c0-11.046 8.954-20 20-20h98.071c11.046 0 20 8.954 20 20v80.022c0 11.045-8.954 20-20 20z" opacity="1" data-original="#0795fe" class=""></path><path fill="#ffffff" d="M251.59 290.183c0-10.065-7.881-18.224-17.603-18.224s-17.602 8.159-17.602 18.224c0 5.957 2.773 11.229 7.041 14.555v27.231h21.123v-27.231c4.269-3.326 7.041-8.599 7.041-14.555z" opacity="1" data-original="#ffffff"></path><g fill="#3e4d6c"><path d="M153.778 129.879h9.38v5.926a27.815 27.815 0 0 1-3.505.198c-8.616 0-13.36-5.041-13.36-14.194 0-8.974 5.143-14.121 14.112-14.121 4.524 0 9.079 1.448 13.02 3.651l3.941-13.325c-5.183-2.846-10.878-4.207-16.822-4.207-17.517 0-29.34 11.36-29.421 28.274 0 16.338 11.885 27.729 28.118 27.729 6.353 0 12.738-1.46 18.608-3.842v-29.763h-24.071zM206.797 93.948c-5.725 0-11.461.592-17.098 1.578v53.186c5.056.676 10.153 1.03 15.254 1.03 17.724 0 31.473-10.12 31.473-29.027 0-17.287-13.199-26.767-29.629-26.767zm-.68 42.121c-.482 0-1.026-.003-1.588-.013v-28.43a40.339 40.339 0 0 1 2.547-.076c8.6 0 14.304 4.513 14.246 13.373 0 10.192-4.974 15.146-15.205 15.146zM262.771 93.948c-5.322 0-10.644.559-15.867 1.574v53.809h14.831V131.25c11.618.095 22.45-6.597 22.45-19.373-.001-12.203-10.644-17.929-21.414-17.929zm-.546 23.629c-.167 0-.33-.001-.49-.003v-10.008a39 39 0 0 1 1.176-.017c6.448 0 6.448 3.111 6.448 4.606 0 2.329-.74 5.422-7.134 5.422zM333.329 142.787c-.78-1.449-2.259-7.777-3.142-11.553-.727-3.195-1.878-5.855-3.424-7.924 3.525-3.141 5.453-7.501 5.453-12.386 0-12.201-10.972-16.976-21.413-16.976-5.348 0-10.661.566-15.867 1.778v53.605h14.831V129.33l1.008-.002c2.651.103 3.975.379 5.081 5.518 1.154 5.102 2.3 9.935 4.862 14.485h16.137zm-15.939-31.182c0 3.764-3.74 4.327-5.969 4.327h-1.656v-8.49a37.3 37.3 0 0 1 1.402-.025c6.223.065 6.223 2.747 6.223 4.188z" fill="#59e5dc" opacity="1" data-original="#3e4d6c" class=""></path></g></g></svg>