<svg xmlns="http://www.w3.org/2000/svg" version="1.1" xmlns:xlink="http://www.w3.org/1999/xlink" width="512" height="512" x="0" y="0" viewBox="0 0 64 64" style="enable-background:new 0 0 512 512" xml:space="preserve" class=""><g><linearGradient id="a" x1="2" x2="62" y1="32" y2="32" gradientUnits="userSpaceOnUse"><stop stop-opacity="1" stop-color="#00c0ff" offset="0"></stop><stop stop-opacity="1" stop-color="#53d4c9" offset="0"></stop><stop stop-opacity="1" stop-color="#53d4c9" offset="0.3127413127413127"></stop></linearGradient><path fill="url(#a)" d="m23.7 37.473 5.805-1.932a7.992 7.992 0 0 1 5.008 0l5.805 1.932a4.473 4.473 0 0 1 3.04 4.051 14.998 14.998 0 0 1-22.698 0 4.473 4.473 0 0 1 3.04-4.051zm13.8-9.614a5.504 5.504 0 0 0-5.49-5.492c-7.264.262-7.27 10.729 0 10.983a5.492 5.492 0 0 0 5.49-5.491zM47 31.767c-.826-19.885-29.157-19.879-29.979 0a14.866 14.866 0 0 0 2.227 7.817 6.256 6.256 0 0 1 3.89-3.81l5.098-1.7a7.276 7.276 0 1 1 7.548 0l5.098 1.7a6.256 6.256 0 0 1 3.89 3.81A14.865 14.865 0 0 0 47 31.767zm-36.4 6.547a.902.902 0 0 0 .635-1.1c-3.28-11.675 4.631-24.316 16.554-26.518a4.418 4.418 0 1 0-.17-1.788C14.607 11.192 5.94 24.963 9.498 37.678a.912.912 0 0 0 1.1.636zm34.834 10.222c-8.231 6.875-21.405 6.064-28.77-1.726a4.324 4.324 0 0 0 1.108-2.916 4.418 4.418 0 1 0-2.548 3.998c7.946 8.594 22.347 9.543 31.337 2.04a.897.897 0 0 0-1.127-1.396zM39.298 9.659a.894.894 0 0 0-.554 1.7c11.588 3.6 17.845 17.115 13.254 28.323a4.418 4.418 0 1 0 3.085 4.212 4.385 4.385 0 0 0-1.52-3.327C58.73 28.403 51.937 13.592 39.298 9.66zM62 32A30 30 0 1 1 32 2a30.034 30.034 0 0 1 30 30zm-1.709 0A28.291 28.291 0 1 0 32 60.291 28.323 28.323 0 0 0 60.291 32z" opacity="1" data-original="url(#a)"></path></g></svg>