<svg xmlns="http://www.w3.org/2000/svg" version="1.1" xmlns:xlink="http://www.w3.org/1999/xlink" width="512" height="512" x="0" y="0" viewBox="0 0 64 64" style="enable-background:new 0 0 512 512" xml:space="preserve" class=""><g><path d="M51.21 25.13c-6.93 0-12.56-5.64-12.56-12.56S44.29 0 51.21 0s12.56 5.64 12.56 12.56-5.63 12.57-12.56 12.57zm0-24.15c-6.38 0-11.58 5.19-11.58 11.58s5.19 11.58 11.58 11.58c6.38 0 11.58-5.19 11.58-11.58S57.6.98 51.21.98z" fill="#53d4c9" opacity="1" data-original="#000000"></path><path d="M51.21 16.59c-2.68 0-4.86-2.18-4.86-4.86s2.18-4.86 4.86-4.86 4.86 2.18 4.86 4.86-2.18 4.86-4.86 4.86zm0-8.74c-2.14 0-3.88 1.74-3.88 3.88s1.74 3.88 3.88 3.88 3.88-1.74 3.88-3.88-1.74-3.88-3.88-3.88z" fill="#53d4c9" opacity="1" data-original="#000000"></path><path d="M43.97 22.71a.49.49 0 0 1-.49-.49c-.01-3.96 2.03-6.28 6.08-6.91.27-.04.52.14.56.41s-.14.52-.41.56c-3.54.55-5.26 2.49-5.24 5.93-.01.28-.23.5-.5.5zM58.46 22.71c-.01 0-.01 0 0 0a.49.49 0 0 1-.49-.49c.01-3.44-1.7-5.38-5.24-5.93-.27-.04-.45-.29-.41-.56s.29-.45.56-.41c4.05.63 6.09 2.95 6.08 6.91-.01.26-.23.48-.5.48zM15.64 40.43c-6.93 0-12.56-5.64-12.56-12.56 0-6.93 5.64-12.56 12.56-12.56S28.2 20.94 28.2 27.87s-5.64 12.56-12.56 12.56zm0-24.14c-6.38 0-11.58 5.19-11.58 11.58 0 6.38 5.19 11.58 11.58 11.58s11.58-5.19 11.58-11.58c-.01-6.38-5.2-11.58-11.58-11.58z" fill="#53d4c9" opacity="1" data-original="#000000"></path><path d="M15.64 31.9c-2.68 0-4.86-2.18-4.86-4.86s2.18-4.86 4.86-4.86 4.86 2.18 4.86 4.86-2.18 4.86-4.86 4.86zm0-8.74c-2.14 0-3.88 1.74-3.88 3.88s1.74 3.88 3.88 3.88 3.88-1.74 3.88-3.88c-.01-2.14-1.75-3.88-3.88-3.88z" fill="#53d4c9" opacity="1" data-original="#000000"></path><path d="M8.39 38.02a.49.49 0 0 1-.49-.49c-.01-3.96 2.03-6.28 6.08-6.91.27-.04.52.14.56.41s-.14.52-.41.56c-3.54.55-5.26 2.49-5.24 5.93 0 .28-.22.5-.5.5zM22.88 38.02a.49.49 0 0 1-.49-.49c.01-3.44-1.7-5.38-5.24-5.93-.27-.04-.45-.29-.41-.56s.29-.45.56-.41c4.05.63 6.09 2.95 6.08 6.91-.01.26-.23.48-.5.48zM37.24 64c-6.93 0-12.56-5.64-12.56-12.56s5.64-12.56 12.56-12.56S49.8 44.51 49.8 51.44 44.16 64 37.24 64zm0-24.14c-6.38 0-11.58 5.19-11.58 11.58s5.19 11.58 11.58 11.58c6.38 0 11.58-5.19 11.58-11.58s-5.2-11.58-11.58-11.58z" fill="#53d4c9" opacity="1" data-original="#000000"></path><path d="M37.24 55.46c-2.68 0-4.86-2.18-4.86-4.86s2.18-4.86 4.86-4.86 4.86 2.18 4.86 4.86-2.18 4.86-4.86 4.86zm0-8.73c-2.14 0-3.88 1.74-3.88 3.88s1.74 3.88 3.88 3.88 3.88-1.74 3.88-3.88c-.01-2.14-1.75-3.88-3.88-3.88z" fill="#53d4c9" opacity="1" data-original="#000000"></path><path d="M29.99 61.59a.49.49 0 0 1-.49-.49c-.01-3.96 2.03-6.28 6.08-6.91.27-.04.52.14.56.41s-.14.52-.41.56c-3.54.55-5.26 2.49-5.24 5.93 0 .27-.22.49-.5.5zM44.48 61.59a.49.49 0 0 1-.49-.49c.01-3.44-1.7-5.38-5.24-5.93-.27-.04-.45-.29-.41-.56s.29-.45.56-.41c4.05.63 6.09 2.95 6.08 6.91-.01.26-.23.48-.5.48zM26.73 23.6c-.19 0-.37-.11-.45-.3a.5.5 0 0 1 .25-.65l13.37-5.83a.5.5 0 0 1 .65.25.5.5 0 0 1-.25.65l-13.37 5.83c-.07.04-.13.05-.2.05zM28.98 43.12c-.14 0-.29-.06-.38-.18l-4.95-6.09a.491.491 0 0 1 .76-.62l4.95 6.09a.491.491 0 0 1-.38.8zM41.6 40.67c-.05 0-.11-.01-.16-.03a.49.49 0 0 1-.3-.63l5.7-16.2c.09-.26.37-.39.63-.3s.39.37.3.63l-5.7 16.2c-.07.21-.26.33-.47.33zM30.57 10.3c-.52 0-1.05-.08-1.56-.25-1.29-.42-2.34-1.31-2.96-2.52A5.06 5.06 0 0 1 28.25.7a5.06 5.06 0 0 1 6.83 2.2 5.06 5.06 0 0 1-2.2 6.83c-.72.38-1.51.57-2.31.57zm-.01-9.18c-.64 0-1.28.15-1.86.45-.97.5-1.69 1.35-2.03 2.39s-.25 2.15.25 3.13c.5.97 1.35 1.69 2.39 2.03 1.04.33 2.15.24 3.12-.25.97-.5 1.69-1.35 2.03-2.39.34-1.04.24-2.15-.25-3.12-.5-.97-1.35-1.69-2.39-2.03-.41-.14-.84-.21-1.26-.21z" fill="#53d4c9" opacity="1" data-original="#000000"></path><path d="M39.79 9.14c-.06 0-.13-.01-.19-.04l-4.86-2.03a.481.481 0 0 1-.26-.64c.1-.25.39-.37.64-.27l4.86 2.03c.25.1.37.39.26.64-.07.2-.26.31-.45.31zM58.88 42.64a5.12 5.12 0 0 1-4.29-2.32 5.107 5.107 0 0 1 1.5-7.07 5.107 5.107 0 0 1 7.07 1.5c1.54 2.36.86 5.53-1.5 7.07-.85.55-1.82.82-2.78.82zm-.01-9.24a4.13 4.13 0 0 0-3.45 6.38c1.24 1.91 3.8 2.45 5.71 1.21a4.13 4.13 0 0 0-2.26-7.59z" fill="#53d4c9" opacity="1" data-original="#000000"></path><path d="M47.52 45.62a.493.493 0 0 1-.28-.9l7.48-5.08c.22-.15.53-.09.68.13.15.23.09.53-.13.68l-7.48 5.08c-.07.06-.17.09-.27.09zM14.64 61.86c-2.39 0-4.53-1.68-5.01-4.11a5.118 5.118 0 0 1 4.01-6.01c2.77-.55 5.46 1.25 6.01 4.01a5.118 5.118 0 0 1-5.01 6.11zm0-9.24a4.136 4.136 0 0 0-4.05 4.93c.44 2.23 2.63 3.69 4.85 3.24a4.136 4.136 0 0 0 3.24-4.85 4.125 4.125 0 0 0-4.04-3.32z" fill="#53d4c9" opacity="1" data-original="#000000"></path><path d="M19.16 56.33c-.23 0-.43-.16-.48-.39-.06-.27.11-.53.38-.59l6.39-1.4c.27-.06.53.11.59.38s-.11.53-.38.59l-6.39 1.4c-.04.01-.07.01-.11.01zM5.15 10.36c-.66 0-1.32-.13-1.95-.39A5.12 5.12 0 0 1 .41 7.2 5.148 5.148 0 0 1 3.17.48C5.79-.62 8.8.62 9.89 3.24a5.148 5.148 0 0 1-4.74 7.12zm0-9.3c-.53 0-1.07.1-1.59.32a4.166 4.166 0 0 0-2.24 5.44 4.15 4.15 0 0 0 5.43 2.23 4.159 4.159 0 0 0 2.23-5.43 4.16 4.16 0 0 0-3.83-2.56z" fill="#53d4c9" opacity="1" data-original="#000000"></path><path d="M10.56 17.41a.48.48 0 0 1-.44-.28L6.5 9.72a.492.492 0 0 1 .23-.66c.24-.12.54-.02.66.23l3.62 7.41a.492.492 0 0 1-.45.71z" fill="#53d4c9" opacity="1" data-original="#000000"></path></g></svg>