<svg xmlns="http://www.w3.org/2000/svg" version="1.1" xmlns:xlink="http://www.w3.org/1999/xlink" width="512" height="512" x="0" y="0" viewBox="0 0 512 512" style="enable-background:new 0 0 512 512" xml:space="preserve" class=""><g><path fill="#f1b759" d="M176.78 264.6a32.247 32.247 0 0 1 4.79 4.19c9.26 9.64 15.93 25.19 28.29 29.05a20.5 20.5 0 0 0 5.34.88c5.87.194 12.159-1.782 18.544-3.967-8.7-6.138-14.566-18.043-22.174-25.963a32.247 32.247 0 0 0-4.79-4.19c-12.24-8.54-33.62-7.91-42.56-19.7-8.92-11.77-2.51-32.1-7.3-46.29-4.66-13.75-22.23-25.97-22.23-41.25s17.57-27.49 22.23-41.25c4.79-14.18-1.62-34.51 7.3-46.28 8.94-11.79 30.33-11.16 42.56-19.71 10.168-7.1 16.517-22.782 26.956-30.145-8.368-2.863-16.571-5.363-23.876-3.085-14.39 4.48-21.07 24.84-33.08 33.23-12.23 8.55-33.62 7.92-42.56 19.71-8.92 11.77-2.51 32.1-7.3 46.28-4.66 13.76-22.23 25.98-22.23 41.25s17.57 27.5 22.23 41.25c4.79 14.19-1.62 34.52 7.3 46.29 8.94 11.79 30.32 11.16 42.56 19.7z" opacity="1" data-original="#d4e1f4" class=""></path><g fill="#1ae5be"><path d="m324 485.516-21-12.707V298h-12v167.758l-31.863-18.664a6.264 6.264 0 0 0-6.225 0L221 465.758V298h-12v174.809l-21 12.707V268h-12v228a5.738 5.738 0 0 0 8.717 5.173l71.337-41.947 71.364 41.947a5.939 5.939 0 0 0 3.026.827 5.216 5.216 0 0 0 2.758-.792A5.8 5.8 0 0 0 336 496V268h-12z" fill="#53d4c9" opacity="1" data-original="#1ae5be" class=""></path><path d="M246 316.218a6 6 0 0 0-12 0V321a6 6 0 0 0 12 0zM240 336.818a6 6 0 0 0-6 6V404a6 6 0 0 0 12 0v-61.182a6 6 0 0 0-6-6z" fill="#53d4c9" opacity="1" data-original="#1ae5be" class=""></path></g><path fill="#f1b759" d="m303.187 141.025-28.888-4.2-12.919-26.174a6 6 0 0 0-10.76 0l-12.92 26.177-28.888 4.2a6 6 0 0 0-3.326 10.235l20.9 20.376-4.935 28.77a6 6 0 0 0 8.706 6.325L256 193.147l25.838 13.584a6 6 0 0 0 8.706-6.325l-4.935-28.77 20.9-20.376a6 6 0 0 0-3.326-10.235zm-28.213 24.219a6 6 0 0 0-1.725 5.312l3.412 19.9-17.869-9.394a5.994 5.994 0 0 0-5.584 0l-17.869 9.394 3.412-19.9a6 6 0 0 0-1.725-5.312l-14.457-14.092 19.979-2.9a6 6 0 0 0 4.517-3.282l8.935-18.1 8.935 18.1a6 6 0 0 0 4.517 3.282l19.979 2.9z" opacity="1" data-original="#0635c9" class=""></path><path fill="#f1b759" d="M390.768 114.189c-1.714-5.066-1.738-11.471-1.763-18.252-.039-10.491-.079-21.338-6.444-29.736-6.346-8.371-16.74-11.367-26.793-14.265-6.547-1.888-12.731-3.671-17.11-6.73-4.24-2.964-7.966-8.092-11.91-13.52-6.193-8.526-12.6-17.341-22.819-20.528-9.722-3.03-19.76.431-29.466 3.778-6.611 2.279-12.855 4.431-18.463 4.431s-11.852-2.152-18.463-4.431c-9.707-3.347-19.744-6.808-29.466-3.778-10.222 3.188-16.626 12-22.819 20.527-3.944 5.428-7.669 10.557-11.91 13.52-4.379 3.06-10.564 4.843-17.111 6.731-10.052 2.9-20.446 5.9-26.792 14.265-6.365 8.4-6.4 19.245-6.444 29.736-.025 6.782-.049 13.187-1.763 18.253-1.613 4.77-5.377 9.7-9.362 14.927-6.179 8.1-13.183 17.278-13.183 28.246s7 20.15 13.183 28.248c3.985 5.224 7.749 10.158 9.362 14.927 1.714 5.066 1.738 11.472 1.763 18.253.039 10.49.079 21.338 6.444 29.735 6.346 8.371 16.74 11.368 26.793 14.266 6.547 1.888 12.731 3.67 17.11 6.729 4.24 2.964 7.965 8.092 11.91 13.521 6.193 8.525 12.6 17.341 22.819 20.527a26.506 26.506 0 0 0 7.952 1.165c7.18 0 14.436-2.5 21.514-4.942 6.611-2.279 12.855-4.432 18.463-4.432s11.852 2.153 18.463 4.432c9.706 3.347 19.744 6.808 29.467 3.777 10.221-3.187 16.625-12 22.818-20.526 3.944-5.429 7.669-10.558 11.91-13.521 4.379-3.059 10.563-4.842 17.111-6.73 10.052-2.9 20.446-5.9 26.792-14.266 6.365-8.4 6.405-19.245 6.444-29.735.025-6.782.049-13.187 1.763-18.254 1.613-4.768 5.377-9.7 9.362-14.926 6.179-8.1 13.182-17.279 13.182-28.248s-7-20.147-13.181-28.246c-3.985-5.223-7.75-10.158-9.363-14.928zm-.178 64.143c-4.4 5.764-8.944 11.724-11.189 18.359-2.34 6.916-2.368 14.613-2.4 22.055-.033 8.912-.064 17.329-4.007 22.53s-12.008 7.522-20.553 9.986c-7.2 2.076-14.648 4.222-20.66 8.425-5.892 4.116-10.393 10.312-14.746 16.3-5.275 7.262-10.258 14.12-16.681 16.122-5.962 1.859-13.745-.824-21.984-3.665-7.254-2.5-14.755-5.087-22.374-5.087s-15.12 2.586-22.374 5.087c-8.239 2.84-16.021 5.523-21.984 3.665-6.423-2-11.406-8.861-16.682-16.123-4.352-5.991-8.853-12.186-14.745-16.3-6.012-4.2-13.459-6.348-20.659-8.424-8.545-2.464-16.616-4.791-20.554-9.986s-3.974-13.618-4.007-22.529c-.027-7.443-.056-15.14-2.4-22.055-2.244-6.635-6.792-12.595-11.189-18.36-5.514-7.228-10.723-14.054-10.723-20.969s5.209-13.74 10.723-20.967c4.4-5.764 8.944-11.724 11.189-18.36 2.34-6.916 2.368-14.612 2.4-22.055.033-8.912.064-17.329 4.007-22.53s12.008-7.521 20.553-9.985c7.2-2.076 14.648-4.223 20.66-8.425 5.892-4.116 10.393-10.312 14.746-16.3 5.275-7.261 10.258-14.12 16.681-16.122 5.962-1.856 13.745.824 21.984 3.665 7.254 2.5 14.755 5.087 22.374 5.087s15.12-2.586 22.374-5.087c8.239-2.84 16.022-5.523 21.984-3.665 6.423 2 11.406 8.862 16.682 16.123 4.352 5.991 8.853 12.187 14.745 16.3 6.013 4.2 13.458 6.348 20.659 8.424 8.545 2.464 16.616 4.79 20.554 9.985s3.974 13.618 4.007 22.529c.028 7.444.056 15.14 2.4 22.055 2.245 6.636 6.792 12.6 11.189 18.361 5.514 7.227 10.722 14.053 10.722 20.967S396.1 171.1 390.59 178.332z" opacity="1" data-original="#0635c9" class=""></path><path fill="#f1b759" d="M256 57.784c-48.318 0-88.893 33.407-99.353 76.891A5.975 5.975 0 0 0 162.49 142a5.959 5.959 0 0 0 5.814-4.55c9.168-38.737 45.005-67.666 87.7-67.666 49.611 0 89.972 39.3 89.972 87.488S305.611 244.535 256 244.535c-42.691 0-78.529-29.224-87.7-67.984a5.958 5.958 0 0 0-5.81-4.551h-.032a5.98 5.98 0 0 0-5.85 7.3c10.4 44.359 51.013 77.278 99.392 77.278 56.228 0 101.972-44.59 101.972-99.4S312.228 57.784 256 57.784z" opacity="1" data-original="#0635c9" class=""></path></g></svg>