<svg xmlns="http://www.w3.org/2000/svg" version="1.1" xmlns:xlink="http://www.w3.org/1999/xlink" width="512" height="512" x="0" y="0" viewBox="0 0 512 512" style="enable-background:new 0 0 512 512" xml:space="preserve" class=""><g><path fill="#53d4c9" d="M244.191 46.605c-4.948-.394-9.949-.6-15-.6C130.42 46 50.03 122.71 50.03 217.28c0 132.92 179.16 247.46 179.16 247.46s5.675-3.629 15-10.339c-43.085-31-164.16-127.85-164.16-237.121 0-89.733 72.38-163.38 164.161-170.675z" opacity="1" data-original="#d4e1f4"></path><path fill="#f1b759" d="M462 460h-19a6 6 0 0 0 0 12h19a6 6 0 0 0 0-12zM414 460h-44a6 6 0 0 0 0 12h44a6 6 0 0 0 0-12z" opacity="1" data-original="#1ae5be" class=""></path><g fill="#0635c9"><path d="M135.348 395.075c44.742 45.2 90.159 74.428 90.612 74.718a6 6 0 0 0 6.464 0c.453-.29 45.869-29.517 90.612-74.718 26.373-26.644 47.412-53.588 62.532-80.081 19.1-33.464 28.783-66.341 28.783-97.717C414.351 119.526 331.289 40 229.192 40S44.033 119.526 44.033 217.277c0 31.376 9.684 64.253 28.782 97.717 15.121 26.493 36.16 53.437 62.533 80.081zM229.192 52c95.48 0 173.159 74.144 173.159 165.277 0 29.231-9.133 60.07-27.144 91.662-14.573 25.562-34.94 51.646-60.535 77.528a595.561 595.561 0 0 1-85.48 71.074 595.5 595.5 0 0 1-85.48-71.074c-25.595-25.882-45.962-51.967-60.535-77.528-18.011-31.592-27.144-62.431-27.144-91.662C56.033 126.144 133.712 52 229.192 52z" fill="#53d4c9" opacity="1" data-original="#0635c9" class=""></path><path d="M229.192 298.7a80.5 80.5 0 1 0-80.5-80.5 80.589 80.589 0 0 0 80.5 80.5zm0-149a68.5 68.5 0 1 1-68.5 68.5 68.577 68.577 0 0 1 68.5-68.5zM91.494 197.84a6.086 6.086 0 0 0 1.093.1 6 6 0 0 0 5.894-4.915 131.407 131.407 0 0 1 48.5-79.806 6 6 0 1 0-7.386-9.457 143.392 143.392 0 0 0-52.911 87.092 6 6 0 0 0 4.81 6.986zM166.172 100a5.968 5.968 0 0 0 2.69-.641 131.646 131.646 0 0 1 7.553-3.5 6 6 0 0 0-4.7-11.042 143.663 143.663 0 0 0-8.242 3.823 6 6 0 0 0 2.7 11.361z" fill="#53d4c9" opacity="1" data-original="#0635c9" class=""></path><path d="M229.192 96.008c-58.7 0-107.838 42.28-119.413 96.886a5.9 5.9 0 0 0 5.782 7.106h.185a5.932 5.932 0 0 0 5.786-4.749 110.215 110.215 0 0 1 109.625-87.225c59.068 1.036 107.092 49.246 108.021 108.316.966 61.46-48.746 111.619-109.986 111.619-54.8 0-100.356-40.356-108.646-92.916A5.927 5.927 0 0 0 114.71 230h-.21a5.909 5.909 0 0 0-5.835 6.816 121.989 121.989 0 0 0 122.783 103.172c64.186-1.16 116.945-52.618 119.634-116.758a122.132 122.132 0 0 0-121.89-127.222z" fill="#53d4c9" opacity="1" data-original="#0635c9" class=""></path></g><path fill="#f1b759" d="M338 460H117a6 6 0 0 0 0 12h221a6 6 0 0 0 0-12z" opacity="1" data-original="#1ae5be" class=""></path></g></svg>