<svg xmlns="http://www.w3.org/2000/svg" version="1.1" xmlns:xlink="http://www.w3.org/1999/xlink" width="512" height="512" x="0" y="0" viewBox="0 0 512 512" style="enable-background:new 0 0 512 512" xml:space="preserve" class=""><g><linearGradient id="a" x1="42.704" x2="507.52" y1="370.82" y2="102.458" gradientUnits="userSpaceOnUse"><stop stop-opacity="1" stop-color="#f78505" offset="0"></stop><stop stop-opacity="1" stop-color="#59e5dc" offset="1"></stop></linearGradient><path fill="url(#a)" d="M346.264 246.613H308.57a15.836 15.836 0 0 0-13.919 8.311 15.833 15.833 0 0 0 .688 16.196 11.046 11.046 0 0 1 1.796 6.056c0 6.12-4.979 11.1-11.101 11.1-6.12 0-11.099-4.979-11.099-11.1 0-2.164.621-4.258 1.795-6.055a15.835 15.835 0 0 0 .688-16.197 15.842 15.842 0 0 0-13.934-8.311h-30.178v-27.401a15.833 15.833 0 0 0-24.508-13.231 11.046 11.046 0 0 1-6.056 1.795c-6.12 0-11.1-4.979-11.1-11.1s4.979-11.099 11.1-11.099c2.164 0 4.258.621 6.056 1.795a15.835 15.835 0 0 0 16.197.687 15.841 15.841 0 0 0 8.311-13.933V139.24a7.502 7.502 0 0 0-7.591-7.5c-34.168.42-66.242 13.28-90.312 36.21-24.216 23.07-37.553 53.67-37.553 86.163 0 48.117 20.577 75.366 38.732 99.407 6.768 8.963 13.232 17.534 18.156 26.604-7.704 4.313-12.925 12.552-12.925 21.99 0 6.887 2.778 13.137 7.272 17.689-4.494 4.552-7.272 10.802-7.272 17.688 0 13.89 11.3 25.189 25.189 25.189h1c2.521 11.724 8.717 22.424 17.881 30.637 10.924 9.79 25.108 15.181 39.941 15.181 28.388 0 52.198-19.296 57.839-45.818h.947c13.89 0 25.189-11.3 25.189-25.189 0-6.887-2.778-13.137-7.272-17.688 4.494-4.552 7.272-10.802 7.272-17.689 0-9.439-5.222-17.677-12.925-21.99 4.923-9.07 11.388-17.642 18.155-26.604 18.155-24.042 38.732-51.291 38.732-99.407a7.496 7.496 0 0 0-7.497-7.5zM225.825 493.5c-19.754 0-36.95-13.008-42.344-30.818h84.722c-5.323 18.021-22.316 30.818-42.378 30.818zm58.786-45.818H167.002c-5.618 0-10.189-4.571-10.189-10.189s4.571-10.188 10.189-10.188h117.609c5.618 0 10.189 4.571 10.189 10.188.001 5.618-4.571 10.189-10.189 10.189zm0-35.378H167.002c-5.618 0-10.189-4.571-10.189-10.189s4.571-10.189 10.189-10.189h117.609c5.618 0 10.189 4.571 10.189 10.189s-4.571 10.189-10.189 10.189zm18.451-67.823c-8.071 10.687-15.743 20.854-21.42 32.445h-111.67c-5.677-11.591-13.349-21.758-21.42-32.445-17.552-23.244-35.702-47.278-35.702-90.368 0-56.046 46.65-102.645 105.457-107.043v27.042c0 .154-.001.514-.438.75-.433.233-.738.038-.867-.047a26.005 26.005 0 0 0-14.259-4.237c-14.392 0-26.1 11.708-26.1 26.099 0 14.392 11.708 26.1 26.1 26.1a26.005 26.005 0 0 0 14.259-4.237c.128-.085.429-.283.867-.046a.763.763 0 0 1 .438.734v34.886a7.5 7.5 0 0 0 7.5 7.5h37.663c.153 0 .514.001.749.437s.038.738-.047.868a26.012 26.012 0 0 0-4.236 14.258c0 14.392 11.708 26.1 26.099 26.1 14.392 0 26.101-11.708 26.101-26.1a26.013 26.013 0 0 0-4.237-14.259c-.085-.129-.282-.431-.047-.867s.596-.437.734-.437h29.989c-1.971 38.448-19.007 61.008-35.513 82.867zM218.681 88.95V52.744c0-4.142 3.357-7.5 7.5-7.5s7.5 3.358 7.5 7.5V88.95c0 4.142-3.357 7.5-7.5 7.5s-7.5-3.358-7.5-7.5zm-102.473-4.729a7.5 7.5 0 0 1 12.99-7.5l18.103 31.355a7.5 7.5 0 0 1-12.99 7.5zm-31.405 93.854a7.497 7.497 0 0 1-10.245 2.745l-31.355-18.103a7.5 7.5 0 0 1-2.745-10.245 7.498 7.498 0 0 1 10.245-2.745l31.355 18.103a7.5 7.5 0 0 1 2.745 10.245zm-29.372 89.126H19.226c-4.143 0-7.5-3.358-7.5-7.5s3.357-7.5 7.5-7.5h36.205a7.5 7.5 0 0 1 0 15zm29.372 74.125a7.5 7.5 0 0 1-2.745 10.245l-31.355 18.103a7.497 7.497 0 0 1-10.245-2.745 7.5 7.5 0 0 1 2.745-10.245l31.355-18.103a7.5 7.5 0 0 1 10.245 2.745zM440.637 259.7a7.5 7.5 0 0 1-7.5 7.5h-36.205c-4.143 0-7.5-3.358-7.5-7.5s3.357-7.5 7.5-7.5h36.205a7.5 7.5 0 0 1 7.5 7.5zm-28.732 107.228a7.497 7.497 0 0 1-10.245 2.745l-31.354-18.103a7.5 7.5 0 0 1-2.745-10.245 7.497 7.497 0 0 1 10.245-2.745l31.354 18.103a7.5 7.5 0 0 1 2.745 10.245zM498.43 86.714l-44.061-76.315c-3.807-6.594-12.269-8.862-18.862-5.054l-10.009 5.779c-4.868 2.81-7.368 8.157-6.816 13.417-24.018 11.531-43.438 14.356-64.731 14.872-10.282.249-18.925 6.748-22.017 16.555l-4.99 15.816a136.431 136.431 0 0 0-39.243-6.269 7.454 7.454 0 0 0-5.362 2.164 7.498 7.498 0 0 0-2.229 5.336v34.868c0 .154 0 .516-.437.752s-.738.038-.867-.046a26.01 26.01 0 0 0-14.26-4.238c-14.392 0-26.1 11.708-26.1 26.1 0 14.391 11.708 26.099 26.1 26.099a25.996 25.996 0 0 0 14.259-4.237c.13-.084.433-.281.868-.046.437.236.437.598.437.752v34.868a7.5 7.5 0 0 0 7.5 7.5h37.659c.154 0 .517 0 .753.437.236.436.038.739-.047.868a26.007 26.007 0 0 0-4.236 14.258c0 14.392 11.708 26.1 26.1 26.1s26.1-11.708 26.1-26.1a26.01 26.01 0 0 0-4.237-14.258c-.085-.129-.282-.432-.047-.868.236-.437.599-.437.753-.437h37.659a7.5 7.5 0 0 0 7.5-7.5c0-10.959-1.565-21.825-4.591-32.3l39.456-22.78c8.625-4.98 15.885-12.082 21.122-20.516 1.571.596 3.243.912 4.933.912 2.341 0 4.712-.595 6.881-1.847l10.009-5.779c3.188-1.84 5.471-4.819 6.427-8.386s.467-7.289-1.374-10.477zm-128.024 93.672a15.832 15.832 0 0 0-13.264 24.509 11.037 11.037 0 0 1 1.796 6.054c0 6.121-4.979 11.1-11.1 11.1s-11.1-4.979-11.1-11.1c0-2.164.62-4.257 1.795-6.054a15.837 15.837 0 0 0 .681-16.212 15.834 15.834 0 0 0-13.945-8.297H295.11v-27.368a15.834 15.834 0 0 0-8.297-13.944 15.835 15.835 0 0 0-16.212.681 11.04 11.04 0 0 1-6.055 1.795c-6.12 0-11.1-4.979-11.1-11.099 0-6.121 4.979-11.1 11.1-11.1 2.163 0 4.258.621 6.056 1.795a15.833 15.833 0 0 0 24.508-13.264V80.844c22.199 1.661 43.445 9.391 61.049 22.181l-6.791 11.762c-3.483 6.033-4.403 13.08-2.592 19.843 1.812 6.763 6.133 12.405 12.166 15.889a26 26 0 0 0 13.035 3.499c7.228 0 14.3-3.003 19.321-8.483a102.024 102.024 0 0 1 8.987 34.852h-29.879zm72.525-60.57-37.12 21.431a118.799 118.799 0 0 0-5.231-10.532l22.7-39.319a7.5 7.5 0 0 0-12.99-7.5l-28.605 49.548c-3.077 5.328-9.915 7.16-15.241 4.083-2.563-1.479-4.401-3.887-5.177-6.78-.775-2.893-.387-5.898 1.093-8.461l19.337-33.494a7.5 7.5 0 0 0-2.745-10.245 7.498 7.498 0 0 0-10.245 2.745l-5.001 8.663a131.163 131.163 0 0 0-22.705-12.867l5.24-16.609c1.151-3.652 4.245-5.978 8.074-6.07 23.25-.563 44.474-3.661 70.809-16.318l35.936 62.242c-3.975 8.202-10.184 14.895-18.129 19.483zm33.967-22.047-42.869-74.25 7.945-4.587 42.868 74.25z" opacity="1" data-original="url(#a)" class=""></path></g></svg>