<svg xmlns="http://www.w3.org/2000/svg" version="1.1" xmlns:xlink="http://www.w3.org/1999/xlink" width="512" height="512" x="0" y="0" viewBox="0 0 512 512" style="enable-background:new 0 0 512 512" xml:space="preserve" class=""><g><path fill="#f1b759" d="m293.736 312.422 18.617-18.617 24.72 24.72-18.618 18.617z" opacity="1" data-original="#7e788e"></path><path fill="#978cac" d="M293.8 312.42a145 145 0 1 1 18.62-18.62q-4.17 5.01-8.89 9.73t-9.73 8.89z" opacity="1" data-original="#978cac" class=""></path><path fill="#59e5dc" d="M284.43 117.57a117.988 117.988 0 1 1-166.86 0 117.983 117.983 0 0 1 166.86 0z" opacity="1" data-original="#a0eaea" class=""></path><path fill="#6d7486" d="m447.17 404.55-70.56-70.56-42.62 42.62 70.56 70.56a30.137 30.137 0 0 0 42.62-42.62z" opacity="1" data-original="#6d7486" class=""></path><path fill="#b0b5ca" d="m304.753 347.44 42.613-42.613 29.166 29.165-42.614 42.614z" opacity="1" data-original="#b0b5ca" class=""></path><path fill="#86bfbe" d="M147.57 284.43A117.989 117.989 0 0 1 216 83.969a117.988 117.988 0 1 0 0 234.062 117.448 117.448 0 0 1-68.43-33.601z" opacity="1" data-original="#86bfbe" class=""></path><path fill="#f4f8fc" d="M120.136 253.867a6 6 0 0 1-5.311-3.2 102.761 102.761 0 0 1-7.485-76.811 6 6 0 1 1 11.5 3.434 90.662 90.662 0 0 0 6.6 67.771 6 6 0 0 1-5.3 8.8zm2.732-94.363a6 6 0 0 1-5.125-9.11 101.06 101.06 0 0 1 5.124-7.646 6 6 0 1 1 9.653 7.128 89.064 89.064 0 0 0-4.515 6.737 6 6 0 0 1-5.137 2.887z" opacity="1" data-original="#f4f8fc"></path></g></svg>