<svg xmlns="http://www.w3.org/2000/svg" version="1.1" xmlns:xlink="http://www.w3.org/1999/xlink" width="512" height="512" x="0" y="0" viewBox="0 0 512 512" style="enable-background:new 0 0 512 512" xml:space="preserve"><g><linearGradient id="a" x1="256" x2="256" y1="16.218" y2="495.782" gradientUnits="userSpaceOnUse"><stop stop-opacity="1" stop-color="#d79817" offset="0"></stop><stop stop-opacity="1" stop-color="#e49243" offset="0"></stop><stop stop-opacity="1" stop-color="#db9225" offset="0"></stop><stop stop-opacity="1" stop-color="#53d4c9" offset="0.1583011583011583"></stop><stop stop-opacity="1" stop-color="#e2a53b" offset="0.186"></stop><stop stop-opacity="1" stop-color="#53d4c9" offset="1"></stop></linearGradient><path fill="url(#a)" d="M458.597 141.388a7.406 7.406 0 0 1-7.405 7.405H60.808a7.406 7.406 0 0 1-7.405-7.405V75.269c0-4.094 3.321-7.416 7.405-7.416h390.384c4.084 0 7.405 3.322 7.405 7.416zm0 32.837a7.406 7.406 0 0 0-7.405-7.405h-93.866a7.406 7.406 0 0 0-7.405 7.405v67.832a7.406 7.406 0 0 0 7.405 7.405h93.866a7.406 7.406 0 0 0 7.405-7.405zm-7.405 93.232h-93.866a7.406 7.406 0 0 0-7.405 7.405v67.832a7.406 7.406 0 0 0 7.405 7.405h93.866a7.406 7.406 0 0 0 7.405-7.405v-67.832a7.406 7.406 0 0 0-7.405-7.405zm-126.64-100.64h-73.95v14.814h73.95zm0 56.167h-73.95v14.814h73.95zm0 56.136h-73.95v14.814h73.95zm-73.95 70.981h73.95v-14.814h-73.95zm-156.386-1.07-5.353 9.278-12.419-7.173 5.353-9.267a95.696 95.696 0 0 1-11.7-9.373c-12.885-12.071-22.184-27.526-26.87-45.013-6.633-24.712-3.237-50.546 9.553-72.73 12.801-22.163 33.472-38.021 58.205-44.654 8.262-2.211 16.641-3.311 24.966-3.311 16.609 0 32.996 4.359 47.764 12.896 22.152 12.769 38.01 33.429 44.654 58.174 6.633 24.744 3.237 50.567-9.553 72.73-12.811 22.163-33.482 38.021-58.205 44.654a96.096 96.096 0 0 1-24.977 3.311 94.837 94.837 0 0 1-27.463-4.062 96.525 96.525 0 0 1-13.955-5.46zm1.069-16.164c18.746 10.801 40.592 13.668 61.485 8.072 20.904-5.617 38.391-19.021 49.213-37.756 10.823-18.735 13.69-40.57 8.082-61.485-5.617-20.925-19.021-38.391-37.756-49.181-18.746-10.833-40.581-13.71-61.495-8.114-20.904 5.617-38.381 19.032-49.213 37.756-10.801 18.756-13.679 40.591-8.072 61.495 5.606 20.893 19.01 38.38 37.756 49.213zM18.408 437.228c-3.946 6.866-1.587 15.667 5.268 19.634 6.865 3.967 15.678 1.608 19.655-5.268L87.7 374.738l-24.893-14.366zM494.82 16.218H17.18C7.702 16.218 0 23.93 0 33.398v349.898c0 9.489 7.702 17.212 17.18 17.212h5.332l11.616-20.121 8.558-14.811H34.9V51.128h442.2v314.448H101.463l.053.032a.586.586 0 0 1 .169.116 7.382 7.382 0 0 1 3.29 4.38 7.45 7.45 0 0 1-.741 5.617l-2.697 4.665-11.605 20.121h125.075v52.779h-56.079c-11.722 0-21.253 9.542-21.253 21.264v21.232h236.651V474.55c0-11.721-9.521-21.264-21.221-21.264h-56.079v-52.779H494.82c9.479 0 17.18-7.723 17.18-17.212V33.398c0-9.468-7.702-17.18-17.18-17.18zM194.286 279.12h-16.492v-66.662h-14.815v66.662h-19.761v-48.34h-14.815v48.34h-19.791v-27.049H93.797v27.049H77.304v14.814h116.982z" opacity="1" data-original="url(#a)"></path></g></svg>