<svg xmlns="http://www.w3.org/2000/svg" version="1.1" xmlns:xlink="http://www.w3.org/1999/xlink" width="512" height="512" x="0" y="0" viewBox="0 0 512 512" style="enable-background:new 0 0 512 512" xml:space="preserve" class=""><g><path fill="#53d4c9" d="m85.47 137.635 29.41.865a192.276 192.276 0 0 1 45.63-47.91l-2.85-38.79 42.756-18.7-8.866-9.25-63.89 27.95 2.85 38.79a192.3 192.3 0 0 0-45.04 47.045zM80.09 227.48 51 202.38l24.763-64.148-29.663-.872L21 202.38l29.09 25.1a214.41 214.41 0 0 0 1.71 66.17l-27.95 26.8 27.95 63.89 29.066-2.14-27.016-61.75 27.95-26.8a214.41 214.41 0 0 1-1.71-66.17zM202.39 491l7.493-8.687L167.36 465.9l1.14-38.78a192.276 192.276 0 0 1-47.91-45.63l-28.42 2.088a192.265 192.265 0 0 0 46.33 43.542l-1.14 38.78z" opacity="1" data-original="#d4e1f4" class=""></path><path fill="#f1b759" d="M332.021 256A76.021 76.021 0 1 0 256 332.021 76.107 76.107 0 0 0 332.021 256zM256 320.021A64.021 64.021 0 1 1 320.021 256 64.094 64.094 0 0 1 256 320.021z" opacity="1" data-original="#1ae5be" class=""></path><path fill="#f1b759" d="M256 226.021A29.979 29.979 0 1 0 285.979 256 30.013 30.013 0 0 0 256 226.021zm0 47.958A17.979 17.979 0 1 1 273.979 256 18 18 0 0 1 256 273.979z" opacity="1" data-original="#1ae5be" class=""></path><g fill="#0635c9"><path d="M256 80.224c-96.924 0-175.776 78.853-175.776 175.776S159.076 431.776 256 431.776 431.776 352.923 431.776 256 352.924 80.224 256 80.224zm0 339.552c-90.307 0-163.776-73.469-163.776-163.776S165.693 92.224 256 92.224 419.776 165.693 419.776 256 346.307 419.776 256 419.776z" fill="#53d4c9" opacity="1" data-original="#0635c9" class=""></path><path d="M468.261 282.066a219.916 219.916 0 0 0-1.592-61.6l25.64-24.589a6 6 0 0 0 1.343-6.735L465.7 125.258a6.007 6.007 0 0 0-5.936-3.579l-35.523 2.611A197.494 197.494 0 0 0 379.6 81.769l1.044-35.5a6 6 0 0 0-3.837-5.773L311.783 15.4a6 6 0 0 0-6.7 1.679l-23 26.665a219.9 219.9 0 0 0-61.609 1.593L195.876 19.7a6 6 0 0 0-6.735-1.345L125.258 46.3a6 6 0 0 0-3.578 5.937l2.61 35.522a197.477 197.477 0 0 0-42.521 44.644l-35.5-1.045A6.013 6.013 0 0 0 40.5 135.2l-25.1 65.023a6 6 0 0 0 1.678 6.7l26.665 23.009a219.91 219.91 0 0 0 1.592 61.6L19.7 316.123a6 6 0 0 0-1.344 6.736l27.953 63.884a6 6 0 0 0 5.936 3.578l35.523-2.611a197.473 197.473 0 0 0 44.643 42.521l-1.044 35.5a6 6 0 0 0 3.833 5.769l65.025 25.1a6 6 0 0 0 6.7-1.679l23-26.665a219.826 219.826 0 0 0 61.6-1.593l24.59 25.639a6 6 0 0 0 6.735 1.345l63.892-27.947a6 6 0 0 0 3.578-5.937l-2.61-35.522a197.477 197.477 0 0 0 42.521-44.644l35.5 1.045a6 6 0 0 0 5.769-3.842l25.1-65.025a6 6 0 0 0-1.678-6.7zm-6.426 86.453-34.542-1.019a6.019 6.019 0 0 0-5.169 2.67 185.635 185.635 0 0 1-44.205 46.416 6 6 0 0 0-2.417 5.265l2.54 34.552-56.156 24.568-23.907-24.927a5.993 5.993 0 0 0-5.41-1.748 207.918 207.918 0 0 1-64.311 1.662 6.016 6.016 0 0 0-5.317 2.031L200.6 483.882l-57.12-22.047 1.017-34.542a6 6 0 0 0-2.669-5.168 185.666 185.666 0 0 1-46.417-44.207 6.009 6.009 0 0 0-5.261-2.418l-34.55 2.542-24.573-56.157 24.926-23.9a6 6 0 0 0 1.749-5.41 207.927 207.927 0 0 1-1.662-64.312 6 6 0 0 0-2.03-5.316L28.119 200.6l22.046-57.121 34.542 1.021a6.028 6.028 0 0 0 5.169-2.67 185.635 185.635 0 0 1 44.2-46.416 6 6 0 0 0 2.417-5.265L133.958 55.6l56.156-24.568 23.907 24.927a5.988 5.988 0 0 0 5.41 1.748 207.918 207.918 0 0 1 64.321-1.662 6.015 6.015 0 0 0 5.316-2.031L311.4 28.118l57.12 22.047-1.016 34.542a5.993 5.993 0 0 0 2.669 5.168 185.666 185.666 0 0 1 46.427 44.207 6.015 6.015 0 0 0 5.263 2.416l34.553-2.54 24.568 56.157-24.931 23.905a6 6 0 0 0-1.749 5.41 207.958 207.958 0 0 1 1.662 64.312 6 6 0 0 0 2.03 5.316l25.885 22.34z" fill="#53d4c9" opacity="1" data-original="#0635c9" class=""></path><path d="M158.242 151.889a6 6 0 0 0-8.485.089A147.858 147.858 0 0 0 107.312 256a6 6 0 0 0 12 0 135.921 135.921 0 0 1 39.019-95.626 6 6 0 0 0-.089-8.485zM170.808 147.528a5.971 5.971 0 0 0 3.581-1.19c1.609-1.2 3.273-2.383 4.943-3.518a6 6 0 1 0-6.742-9.926 151.37 151.37 0 0 0-5.373 3.823 6 6 0 0 0 3.591 10.811zM256.508 133.942a122.043 122.043 0 0 0-118.436 90.639 5.935 5.935 0 0 0 5.762 7.419h.133a5.947 5.947 0 0 0 5.739-4.429c12.867-48.05 57.77-83.5 110.429-81.553 58.275 2.156 105.049 50.1 105.854 108.407A110 110 0 0 1 146.6 267.4a5.974 5.974 0 0 0-5.92-5.4h-.114a5.964 5.964 0 0 0-5.914 6.6 122 122 0 0 0 243.238-17.832c-2.69-64.833-56.49-116.561-121.382-116.826z" fill="#53d4c9" opacity="1" data-original="#0635c9" class=""></path></g></g></svg>