<svg xmlns="http://www.w3.org/2000/svg" version="1.1" xmlns:xlink="http://www.w3.org/1999/xlink" width="512" height="512" x="0" y="0" viewBox="0 0 512 512" style="enable-background:new 0 0 512 512" xml:space="preserve" class=""><g><path fill="#f1b759" d="M315.28 48.55c-68.21 13.92-112.5 80.23-98.57 148.44l.03.15a27.614 27.614 0 0 1-7.32 25.24L61.94 369.86a56.351 56.351 0 0 0 11.26 88.375 56.329 56.329 0 0 1 8.74-68.375l147.48-147.48a27.614 27.614 0 0 0 7.32-25.24l-.03-.15c-13.93-68.21 30.36-134.52 98.57-148.44q5.643-1.153 11.355-1.777L364.56 48.32a125.949 125.949 0 0 0-49.28.23z" opacity="1" data-original="#d4e1f4" class=""></path><path fill="#59e5dc" d="m126.809 349.687-37.691 37.691a25.3 25.3 0 0 0 35.775 35.774l37.69-37.691a25.3 25.3 0 0 0-35.774-35.774zm27.29 27.288-37.691 37.691a13.3 13.3 0 1 1-18.8-18.8l37.69-37.691a13.3 13.3 0 1 1 18.8 18.8z" opacity="1" data-original="#1ae5be" class=""></path><g fill="#0635c9"><path d="m222.37 241.7-3.835 3.834a6 6 0 0 0 8.485 8.486l3.834-3.834a6 6 0 1 0-8.484-8.486zM201.02 263.055l-43.484 43.483a6 6 0 1 0 8.485 8.484l43.479-43.483a6 6 0 0 0-8.484-8.484z" fill="#59e5dc" opacity="1" data-original="#0635c9" class=""></path><path d="M469.879 145.642a6.006 6.006 0 0 0-5.457-4.788 6.248 6.248 0 0 0-4.808 1.887l-62.554 62.082-64.248-25.083-25.1-64.29L368.86 52.5a6.007 6.007 0 0 0 .891-7.188 6.218 6.218 0 0 0-4.25-2.921 131.336 131.336 0 0 0-51.423.278C242.619 57.257 196.467 127.024 211 198.232l.027.131a21.643 21.643 0 0 1-5.771 19.773l-21.33 21.289a5.988 5.988 0 1 0 8.453 8.484l21.283-21.289c7.948-7.947 11.083-19.423 8.736-30.719l-.025-.11c-13.2-64.684 29.02-128.1 94-141.364a119.639 119.639 0 0 1 35.652-1.872l-55.634 57.3a6 6 0 0 0-1.272 6.363l27.464 70.335a6 6 0 0 0 3.417 3.409l70.336 27.459a6 6 0 0 0 6.409-1.33l57.139-56.705c6.432 60.6-34.482 117.533-95.651 130.021a115.711 115.711 0 0 1-48.7-.068 33.321 33.321 0 0 0-31.061 8.8L137.337 445.263A50.317 50.317 0 1 1 66.178 374.1l96.5-96.5a6 6 0 0 0-8.485-8.485l-96.5 96.5a62.316 62.316 0 1 0 88.128 88.128L292.948 306.62a21.4 21.4 0 0 1 19.953-5.572 127.6 127.6 0 0 0 53.727.117c71.46-14.589 117.778-84.356 103.251-155.523z" fill="#59e5dc" opacity="1" data-original="#0635c9" class=""></path></g></g></svg>