<svg xmlns="http://www.w3.org/2000/svg" version="1.1" xmlns:xlink="http://www.w3.org/1999/xlink" width="512" height="512" x="0" y="0" viewBox="0 0 520 520" style="enable-background:new 0 0 512 512" xml:space="preserve" class=""><g><defs><path id="a" d="M434.844 250h-80L254.141 350.703l-84.844-84.844L270 165.156v-80L355.156 0H0v520h520V164.844z" fill="#53d4c9" opacity="1" data-original="#000000"></path></defs><clipPath id="b"><use xlink:href="#a" style="overflow:visible;"></use></clipPath><path d="M220 100c63.308 0 119.844 29.573 156.517 75.629C403.724 209.796 420 253.034 420 300c0 110.273-89.727 200-200 200-55.137 0-105.137-22.432-141.353-58.647S20 355.137 20 300c0-110.273 89.727-200 200-200z" style="clip-path:url(#b);stroke-width:40;stroke-miterlimit:10;" clip-path="url(#b)" fill="none" stroke="#53d4c9" stroke-width="40" stroke-miterlimit="10" data-original="#000000" opacity="1" class=""></path><circle cx="220" cy="300" r="120" style="clip-path:url(#b);stroke-width:40;stroke-miterlimit:10;" clip-path="url(#b)" fill="none" stroke="#53d4c9" stroke-width="40" stroke-miterlimit="10" data-original="#000000" opacity="1" class=""></circle><path d="m240 280 90-90" style="stroke-width:40;stroke-miterlimit:10;" fill="none" stroke="#53d4c9" stroke-width="40" stroke-miterlimit="10" data-original="#000000" opacity="1" class=""></path><circle cx="220" cy="300" r="40" style="stroke-width:40;stroke-miterlimit:10;" fill="none" stroke="#53d4c9" stroke-width="40" stroke-miterlimit="10" data-original="#000000" opacity="1" class=""></circle><path d="m391 49-61 61v80h80l61-61-68-12z" style="stroke-width:40;stroke-miterlimit:10;" fill="none" stroke="#53d4c9" stroke-width="40" stroke-miterlimit="10" data-original="#000000" opacity="1" class=""></path></g></svg>