<svg xmlns="http://www.w3.org/2000/svg" version="1.1" xmlns:xlink="http://www.w3.org/1999/xlink" width="512" height="512" x="0" y="0" viewBox="0 0 512 512" style="enable-background:new 0 0 512 512" xml:space="preserve" class=""><g><path fill="#f1b759" d="M271 64.621q-7.425-.574-15-.581C150.09 64.04 64.24 149.98 64.24 256S150.09 447.96 256 447.96q7.572 0 15-.582C172.1 439.719 94.24 356.967 94.24 256S172.1 72.281 271 64.621z" opacity="1" data-original="#d4e1f4" class=""></path><g fill="#0635c9"><path d="M256 453.961c109.046 0 197.761-88.8 197.761-197.961S365.046 58.039 256 58.039 58.239 146.844 58.239 256 146.954 453.961 256 453.961zm-135.522-325 9.346 9.347a6 6 0 1 0 8.485-8.485l-9.357-9.356A184.976 184.976 0 0 1 250 70.146v13.415a6 6 0 1 0 12 0V70.146a184.976 184.976 0 0 1 121.048 50.322l-9.357 9.356a6 6 0 0 0 8.485 8.485l9.346-9.347A185.367 185.367 0 0 1 441.654 250h-13.215a6 6 0 0 0 0 12h13.215a185.367 185.367 0 0 1-50.132 121.038l-9.346-9.347a6 6 0 0 0-8.485 8.485l9.357 9.356A184.976 184.976 0 0 1 262 441.854v-13.415a6 6 0 0 0-12 0v13.415a184.976 184.976 0 0 1-121.048-50.322l9.357-9.356a6 6 0 1 0-8.485-8.485l-9.346 9.347A185.367 185.367 0 0 1 70.346 262h13.215a6 6 0 1 0 0-12H70.346a185.367 185.367 0 0 1 50.132-121.038z" fill="#53d4c9" opacity="1" data-original="#0635c9" class=""></path><path d="M168.479 256A87.521 87.521 0 1 0 256 168.394 87.662 87.662 0 0 0 168.479 256zM256 180.394A75.606 75.606 0 1 1 180.479 256 75.649 75.649 0 0 1 256 180.394zM112.916 212.618a5.991 5.991 0 0 0 7.637-3.7 143.309 143.309 0 0 1 46.66-65.479 6 6 0 0 0-7.438-9.416 155.284 155.284 0 0 0-50.556 70.955 6 6 0 0 0 3.697 7.64zM185.909 130.084a5.985 5.985 0 0 0 2.816-.705 141.46 141.46 0 0 1 5.863-2.951 6 6 0 1 0-5.149-10.84 155.923 155.923 0 0 0-6.355 3.2 6 6 0 0 0 2.825 11.3z" fill="#53d4c9" opacity="1" data-original="#0635c9" class=""></path></g><path fill="#f1b759" d="M256 139.1a6 6 0 0 0-6 6v108.339a6 6 0 0 0 1.493 3.961l81 92.172a6 6 0 1 0 9.014-7.922L262 251.178V145.1a6 6 0 0 0-6-6z" opacity="1" data-original="#1ae5be" class=""></path><path fill="#53d4c9" d="M422.709 89.125A235.749 235.749 0 0 0 21.22 234.466 6.006 6.006 0 0 0 27.2 241a5.985 5.985 0 0 0 5.964-5.447A223.772 223.772 0 1 1 414.22 414.4 223.752 223.752 0 0 1 33.168 276.447 5.985 5.985 0 0 0 27.2 271a6.006 6.006 0 0 0-5.984 6.534 235.694 235.694 0 0 0 401.493 145.341 236.168 236.168 0 0 0 0-333.75z" opacity="1" data-original="#0635c9" class=""></path></g></svg>