<svg xmlns="http://www.w3.org/2000/svg" version="1.1" xmlns:xlink="http://www.w3.org/1999/xlink" width="512" height="512" x="0" y="0" viewBox="0 0 512 512" style="enable-background:new 0 0 512 512" xml:space="preserve" class=""><g><linearGradient id="a" x1="-18.438" x2="481.375" y1="422.264" y2="133.697" gradientUnits="userSpaceOnUse"><stop stop-opacity="1" stop-color="#e514fc" offset="0"></stop><stop stop-opacity="0.42" stop-color="#53d4c9" offset="0"></stop><stop stop-opacity="0.42" stop-color="#53d4c9" offset="0.1274131274131274"></stop><stop stop-opacity="0.42" stop-color="#53d4c9" offset="0.20077220077220076"></stop><stop stop-opacity="1" stop-color="#53d4c9" offset="1"></stop></linearGradient><path fill="url(#a)" d="M87.208 232.469C227.33 182.652 278.572 121.536 296.885 88.265l-16.731-7.189c-4.522-1.943-5.052-8.342-.55-10.843l64.372-35.76c3.464-1.925 7.804-.06 8.792 3.778l18.367 71.311c1.284 4.987-3.724 9.009-8.247 7.062l-20.118-8.644c-45.589 57.827-120.105 123.569-255.562 124.489zm303.345-61.797h18.061v239.283c0 3.305 2.695 6 6 6h51.495c3.305 0 6-2.695 6-6V170.672h18.061c6.054 0 9.436-6.953 5.7-11.716l-44.107-56.236c-5.8-7.394-17.003-7.394-22.802 0l-44.107 56.236c-3.737 4.764-.354 11.716 5.699 11.716zm-88.532 46.904c-3.305 0-6 2.695-6 6v186.38c0 3.305 2.695 6 6 6h51.495c3.305 0 6-2.695 6-6v-186.38c0-3.305-2.695-6-6-6h-51.495zm-112.592 46.903c-3.305 0-6 2.695-6 6v139.477c0 3.305 2.695 6 6 6h51.495c3.305 0 6-2.695 6-6V270.479c0-3.304-2.695-6-6-6h-51.495zM490.693 452.68H34.114V62.148c0-7.073-5.734-12.807-12.807-12.807S8.5 55.075 8.5 62.148v403.338c0 7.073 5.734 12.807 12.807 12.807h469.386c7.073 0 12.807-5.734 12.807-12.807s-5.734-12.806-12.807-12.806zM76.838 415.955h51.495c3.305 0 6-2.695 6-6v-92.573c0-3.305-2.695-6-6-6H76.838c-3.305 0-6 2.695-6 6v92.573c0 3.305 2.695 6 6 6z" opacity="1" data-original="url(#a)" class=""></path></g></svg>