<svg xmlns="http://www.w3.org/2000/svg" version="1.1" xmlns:xlink="http://www.w3.org/1999/xlink" width="512" height="512" x="0" y="0" viewBox="0 0 510 510" style="enable-background:new 0 0 512 512" xml:space="preserve" fill-rule="evenodd" class=""><g><path fill="#59e5dc" d="M15 128.991a5 5 0 0 1 2.87-4.523l180.635-85.076a4.994 4.994 0 0 1 4.26 0L383.4 124.468a5 5 0 0 1 2.87 4.523v75.396a5 5 0 0 1-7.13 4.523l-176.375-83.069a5.001 5.001 0 0 0-4.26 0L22.13 208.91a4.997 4.997 0 0 1-7.13-4.523z" opacity="1" data-original="#afe269"></path><path fill="#53d4c9" d="M15 276.905a5 5 0 0 1 2.87-4.523l180.635-85.076a5.001 5.001 0 0 1 4.26 0L383.4 272.382a5 5 0 0 1 2.87 4.523v75.396a5 5 0 0 1-7.13 4.523l-176.375-83.069a5.001 5.001 0 0 0-4.26 0L22.13 356.824a4.997 4.997 0 0 1-7.13-4.523z" opacity="1" data-original="#c6ea94" class=""></path><path fill="#f6c13e" d="M487.299 373.242c-23.09 0-34.683 27.979-18.353 44.309 3.006 3.006 3.006 7.895 0 10.901l-16.579 16.579c-3.006 3.006-7.895 3.006-10.901 0-16.33-16.33-44.309-4.737-44.309 18.353a7.694 7.694 0 0 1-7.701 7.701h-23.45a7.694 7.694 0 0 1-7.701-7.701c0-23.118-27.965-34.697-44.309-18.353a7.699 7.699 0 0 1-10.887 0l-16.593-16.579c-3.006-3.006-3.006-7.895 0-10.901 16.33-16.33 4.751-44.309-18.352-44.309a7.702 7.702 0 0 1-7.701-7.701v-23.45a7.702 7.702 0 0 1 7.701-7.701c23.103 0 34.682-27.979 18.352-44.309a7.699 7.699 0 0 1 0-10.887l16.593-16.593a7.699 7.699 0 0 1 10.887 0c16.331 16.33 44.309 4.751 44.309-18.353a7.702 7.702 0 0 1 7.701-7.701h23.45a7.702 7.702 0 0 1 7.701 7.701c0 23.104 27.979 34.683 44.309 18.353 3.006-3.006 7.895-3.006 10.901 0l16.579 16.593a7.699 7.699 0 0 1 0 10.887c-16.33 16.33-4.737 44.309 18.353 44.309a7.694 7.694 0 0 1 7.701 7.701v23.45a7.694 7.694 0 0 1-7.701 7.701z" opacity="1" data-original="#fdcd56" class=""></path><path fill="#f4f6f8" d="M377.738 410.168c31.026 0 56.346-25.319 56.346-56.345 0-31.04-25.32-56.346-56.346-56.346-31.04 0-56.345 25.306-56.345 56.346 0 31.026 25.305 56.345 56.345 56.345z" opacity="1" data-original="#f4f6f8"></path></g></svg>