<svg xmlns="http://www.w3.org/2000/svg" version="1.1" xmlns:xlink="http://www.w3.org/1999/xlink" width="512" height="512" x="0" y="0" viewBox="0 0 512 512" style="enable-background:new 0 0 512 512" xml:space="preserve" class=""><g><path fill="#d4e1f4" d="M115 459.867v-97.6a77.244 77.244 0 0 1 63.45-76.158 77.416 77.416 0 0 0 62.571-63.663A74.7 74.7 0 0 1 212.393 210h-.3l-.04-.055a77.411 77.411 0 0 1-63.6 76.167A77.244 77.244 0 0 0 85 362.27v87.19l26.98 9.38c1.005.348 2.013.686 3.02 1.027z" opacity="1" data-original="#d4e1f4"></path><g fill="#0635c9"><path d="M118 357.113a6 6 0 0 0-12 0v4.778a6 6 0 0 0 12 0zM112 377.713a6 6 0 0 0-6 6v54.178a6 6 0 1 0 12 0v-54.178a6 6 0 0 0-6-6z" fill="#3ac2c5" opacity="1" data-original="#0635c9" class=""></path><path d="M91 375v-12.73c0-34.373 24.441-64.156 58.283-70.175A83.556 83.556 0 0 0 218.054 210h-12a71.72 71.72 0 0 1-58.6 70.231A83.271 83.271 0 0 0 79 362.27V375a6 6 0 0 0 6 6 6 6 0 0 0 6-6zM364.546 280.231a71.72 71.72 0 0 1-58.6-70.231h-12a83.556 83.556 0 0 0 68.771 82.1C396.559 298.114 421 327.9 421 362.27v82.919l-22.941 7.981a433.6 433.6 0 0 1-284.138 0L91 445.189V417a6 6 0 0 0-6-6 6 6 0 0 0-6 6v32.46a5.927 5.927 0 0 0 3.955 5.669l27.017 9.379a445.918 445.918 0 0 0 292.106 0l26.972-9.379a5.923 5.923 0 0 0 3.95-5.669v-87.19a83.271 83.271 0 0 0-68.454-82.039z" fill="#3ac2c5" opacity="1" data-original="#0635c9" class=""></path></g><path fill="#3ac2c5" d="M256 229.943a81.117 81.117 0 0 0 81-81.172v-44.7a81 81 0 1 0-162 0v44.7a81.117 81.117 0 0 0 81 81.172zm-69-125.877a69 69 0 1 1 138 0v44.7a69 69 0 1 1-138 0z" opacity="1" data-original="#1ae5be" class=""></path></g></svg>